<?xml version="1.0" encoding="UTF-8" standalone="no"?>
<!-- Created with Inkscape (http://www.inkscape.org/) -->

<svg
   width="21.373064mm"
   height="21.173517mm"
   viewBox="0 0 21.373064 21.173517"
   version="1.1"
   id="svg5"
   inkscape:version="1.2.2 (b0a8486, 2022-12-01)"
   sodipodi:docname="n-star.svg"
   xmlns:inkscape="http://www.inkscape.org/namespaces/inkscape"
   xmlns:sodipodi="http://sodipodi.sourceforge.net/DTD/sodipodi-0.dtd"
   xmlns="http://www.w3.org/2000/svg"
   xmlns:svg="http://www.w3.org/2000/svg"
   xmlns:ns1="http://www.iki.fi/pav/software/textext/">
  <sodipodi:namedview
     id="namedview7"
     pagecolor="#ffffff"
     bordercolor="#666666"
     borderopacity="1.0"
     inkscape:showpageshadow="2"
     inkscape:pageopacity="0.0"
     inkscape:pagecheckerboard="0"
     inkscape:deskcolor="#d1d1d1"
     inkscape:document-units="mm"
     showgrid="true"
     inkscape:zoom="4.7572176"
     inkscape:cx="62.746762"
     inkscape:cy="42.672002"
     inkscape:window-width="1392"
     inkscape:window-height="790"
     inkscape:window-x="48"
     inkscape:window-y="25"
     inkscape:window-maximized="0"
     inkscape:current-layer="layer1">
    <inkscape:grid
       type="xygrid"
       id="grid765"
       originx="-259.50971"
       originy="-179.57968"
       spacingy="1"
       spacingx="1"
       units="mm"
       visible="true" />
  </sodipodi:namedview>
  <defs
     id="defs2" />
  <g
     inkscape:label="Layer 1"
     inkscape:groupmode="layer"
     id="layer1"
     transform="translate(-68.6619, -47.5138)">
    <path
       style="font-variation-settings:normal;opacity:1;fill:none;fill-opacity:1;fill-rule:evenodd;stroke:#000000;stroke-width:0.199482;stroke-linecap:butt;stroke-linejoin:miter;stroke-miterlimit:4;stroke-dasharray:none;stroke-dashoffset:0;stroke-opacity:1;stop-color:#000000;stop-opacity:1"
       id="path819"
       sodipodi:type="arc"
       sodipodi:cx="-34.759468"
       sodipodi:cy="85.217857"
       sodipodi:rx="10.517155"
       sodipodi:ry="10.118007"
       sodipodi:start="6.2471832"
       sodipodi:end="1.5673223"
       sodipodi:arc-type="arc"
       d="m -24.249129,84.853666 a 10.517155,10.118007 0 0 1 -2.928259,7.376102 10.517155,10.118007 0 0 1 -7.545543,3.106035"
       sodipodi:open="true"
       transform="rotate(-68)" />
    <path
       style="font-variation-settings:normal;fill:none;fill-opacity:1;fill-rule:evenodd;stroke:#000000;stroke-width:0.203145;stroke-linecap:butt;stroke-linejoin:miter;stroke-miterlimit:4;stroke-dasharray:none;stroke-dashoffset:0;stroke-opacity:1;stop-color:#000000"
       id="path819-8"
       sodipodi:type="arc"
       sodipodi:cx="13.428543"
       sodipodi:cy="85.110199"
       sodipodi:rx="10.794379"
       sodipodi:ry="10.223556"
       sodipodi:start="6.2471832"
       sodipodi:end="1.5673223"
       sodipodi:arc-type="arc"
       d="m 24.215928,84.742209 a 10.794379,10.223556 0 0 1 -3.005446,7.453047 10.794379,10.223556 0 0 1 -7.744439,3.138437"
       sodipodi:open="true"
       transform="matrix(-0.37460659,0.92718385,0.92718385,0.37460659,0,0)" />
    <path
       style="font-variation-settings:normal;opacity:1;vector-effect:none;fill:#ffffff;fill-opacity:1;fill-rule:evenodd;stroke-width:0.264583;stroke-linecap:butt;stroke-linejoin:miter;stroke-miterlimit:4;stroke-dasharray:none;stroke-dashoffset:0;stroke-opacity:1;-inkscape-stroke:none;stop-color:#000000;stop-opacity:1"
       id="path1547"
       sodipodi:type="arc"
       sodipodi:cx="-26.887962"
       sodipodi:cy="92.452484"
       sodipodi:rx="0.083425865"
       sodipodi:ry="0.72302419"
       sodipodi:start="0.0020574205"
       sodipodi:end="1.5673223"
       sodipodi:open="true"
       sodipodi:arc-type="arc"
       d="m -26.804537,92.453972 a 0.08342586,0.72302419 0 0 1 -0.08314,0.721532"
       transform="rotate(-68)" />
    <path
       style="font-variation-settings:normal;fill:none;fill-opacity:1;fill-rule:evenodd;stroke:#000000;stroke-width:0.199482;stroke-linecap:butt;stroke-linejoin:miter;stroke-miterlimit:4;stroke-dasharray:none;stroke-dashoffset:0;stroke-opacity:1;stop-color:#000000"
       id="path819-1"
       sodipodi:type="arc"
       sodipodi:cx="-34.874977"
       sodipodi:cy="-105.43237"
       sodipodi:rx="10.517155"
       sodipodi:ry="10.118007"
       sodipodi:start="6.2471832"
       sodipodi:end="1.5673223"
       sodipodi:arc-type="arc"
       d="m -24.364638,-105.79656 a 10.517155,10.118007 0 0 1 -2.928259,7.376097 10.517155,10.118007 0 0 1 -7.545543,3.106036"
       sodipodi:open="true"
       transform="matrix(0.37460659,-0.92718385,-0.92718385,-0.37460659,0,0)" />
    <path
       style="font-variation-settings:normal;fill:none;fill-opacity:1;fill-rule:evenodd;stroke:#000000;stroke-width:0.202097;stroke-linecap:butt;stroke-linejoin:miter;stroke-miterlimit:4;stroke-dasharray:none;stroke-dashoffset:0;stroke-opacity:1;stop-color:#000000"
       id="path819-8-1"
       sodipodi:type="arc"
       sodipodi:cx="13.599861"
       sodipodi:cy="-105.54195"
       sodipodi:rx="10.739096"
       sodipodi:ry="10.170396"
       sodipodi:start="6.2471832"
       sodipodi:end="1.5673223"
       sodipodi:arc-type="arc"
       d="m 24.331998,-105.90802 a 10.739096,10.170396 0 0 1 -2.990054,7.41429 10.739096,10.170396 0 0 1 -7.704775,3.122118"
       sodipodi:open="true"
       transform="rotate(112)" />
    <g
       transform="matrix(0.19463737,0,0,0.20248175,73.644741,50.617435)"
       ns1:version="1.8.2"
       ns1:texconverter="pdflatex"
       ns1:pdfconverter="inkscape"
       ns1:text="$\\mathcal{S}$"
       ns1:preamble="/Users/rako/Library/Application Support/org.inkscape.Inkscape/config/inkscape/extensions/textext/default_packages.tex"
       ns1:scale="0.4"
       ns1:alignment="middle center"
       ns1:stroke-to-path="0"
       ns1:inkscapeversion="1.2.2"
       ns1:jacobian_sqrt="0.141111"
       id="g453">
      <defs
         id="id-804e603a-78a0-414c-93c7-ac2dc5fb0cba">
        <g
           id="id-4eb198ba-524e-45ae-8283-78eb9e024076">
          <g
             id="id-2edb1cd7-6df8-4f87-b2bc-ed6dc7bdeafe" />
          <g
             id="id-39f9441a-2bc5-43c6-a83f-220937f7d6f7">
            <path
               d="m 1.140625,-2.1875 c 0.125,-0.046875 0.46875,-0.265625 0.46875,-0.40625 0,-0.0625 -0.046875,-0.0625 -0.109375,-0.0625 -0.34375,0 -1.328125,0.421875 -1.328125,1.421875 0,0.71875 0.8125,1.453125 2.03125,1.453125 1.625,0 3.515625,-1.125 3.515625,-2.484375 0,-0.9375 -1,-1.40625 -1.8125,-1.765625 C 3.203125,-4.34375 2.75,-4.75 2.75,-5.328125 2.75,-5.53125 2.84375,-5.921875 3.15625,-6.1875 3.453125,-6.453125 4,-6.484375 4.140625,-6.484375 c 0.109375,0 0.53125,0.015625 0.96875,0.203125 0.1875,0.09375 0.4375,0.203125 0.4375,0.640625 0,0.140625 0,0.1875 -0.03125,0.296875 C 5.5,-5.3125 5.5,-5.28125 5.5,-5.25 c 0,0.078125 0.046875,0.078125 0.09375,0.078125 0.125,0 0.375,-0.109375 0.5625,-0.265625 0.140625,-0.109375 0.25,-0.234375 0.25,-0.625 0,-0.484375 -0.265625,-0.625 -0.53125,-0.75 -0.46875,-0.21875 -0.9375,-0.21875 -1.0625,-0.21875 -1.3125,0 -2.90625,1 -2.90625,2.140625 0,0.828125 0.859375,1.234375 1.34375,1.4375 0.703125,0.328125 1.609375,0.78125 1.609375,1.625 0,0.65625 -0.484375,1.5 -2,1.5 -1.015625,0 -1.828125,-0.65625 -1.828125,-1.34375 0,-0.171875 0.046875,-0.359375 0.109375,-0.515625 z m 0,0"
               id="id-62f37f09-ca23-47ae-aac5-40f040600bf3" />
          </g>
        </g>
      </defs>
      <g
         fill="#000000"
         fill-opacity="1"
         id="id-60c9e0e3-6636-4811-8778-67d084120202"
         transform="translate(-148.884,-127.734)">
        <g
           transform="translate(148.712,134.765)"
           id="g450">
          <path
             d="m 1.140625,-2.1875 c 0.125,-0.046875 0.46875,-0.265625 0.46875,-0.40625 0,-0.0625 -0.046875,-0.0625 -0.109375,-0.0625 -0.34375,0 -1.328125,0.421875 -1.328125,1.421875 0,0.71875 0.8125,1.453125 2.03125,1.453125 1.625,0 3.515625,-1.125 3.515625,-2.484375 0,-0.9375 -1,-1.40625 -1.8125,-1.765625 C 3.203125,-4.34375 2.75,-4.75 2.75,-5.328125 2.75,-5.53125 2.84375,-5.921875 3.15625,-6.1875 3.453125,-6.453125 4,-6.484375 4.140625,-6.484375 c 0.109375,0 0.53125,0.015625 0.96875,0.203125 0.1875,0.09375 0.4375,0.203125 0.4375,0.640625 0,0.140625 0,0.1875 -0.03125,0.296875 C 5.5,-5.3125 5.5,-5.28125 5.5,-5.25 c 0,0.078125 0.046875,0.078125 0.09375,0.078125 0.125,0 0.375,-0.109375 0.5625,-0.265625 0.140625,-0.109375 0.25,-0.234375 0.25,-0.625 0,-0.484375 -0.265625,-0.625 -0.53125,-0.75 -0.46875,-0.21875 -0.9375,-0.21875 -1.0625,-0.21875 -1.3125,0 -2.90625,1 -2.90625,2.140625 0,0.828125 0.859375,1.234375 1.34375,1.4375 0.703125,0.328125 1.609375,0.78125 1.609375,1.625 0,0.65625 -0.484375,1.5 -2,1.5 -1.015625,0 -1.828125,-0.65625 -1.828125,-1.34375 0,-0.171875 0.046875,-0.359375 0.109375,-0.515625 z m 0,0"
             id="id-9b4cd7a8-6cb8-423a-9a3e-56331a1d14a5" />
        </g>
      </g>
    </g>
  </g>
</svg>
