<svg xmlns="http://www.w3.org/2000/svg" viewBox="0 0 280 280" role="img" aria-label="Euler characteristic surface: a 2D heatmap">
  <g fill="currentColor" stroke="none">
    <rect x="38"  y="40"  width="28" height="33" fill-opacity="0.05" />
    <rect x="66"  y="40"  width="28" height="33" fill-opacity="0.10" />
    <rect x="94"  y="40"  width="28" height="33" fill-opacity="0.20" />
    <rect x="122" y="40"  width="28" height="33" fill-opacity="0.40" />
    <rect x="150" y="40"  width="28" height="33" fill-opacity="0.55" />
    <rect x="178" y="40"  width="28" height="33" fill-opacity="0.45" />
    <rect x="206" y="40"  width="28" height="33" fill-opacity="0.25" />
    <rect x="38"  y="73"  width="28" height="33" fill-opacity="0.10" />
    <rect x="66"  y="73"  width="28" height="33" fill-opacity="0.22" />
    <rect x="94"  y="73"  width="28" height="33" fill-opacity="0.42" />
    <rect x="122" y="73"  width="28" height="33" fill-opacity="0.65" />
    <rect x="150" y="73"  width="28" height="33" fill-opacity="0.50" />
    <rect x="178" y="73"  width="28" height="33" fill-opacity="0.32" />
    <rect x="206" y="73"  width="28" height="33" fill-opacity="0.15" />
    <rect x="38"  y="106" width="28" height="33" fill-opacity="0.20" />
    <rect x="66"  y="106" width="28" height="33" fill-opacity="0.42" />
    <rect x="94"  y="106" width="28" height="33" fill-opacity="0.60" />
    <rect x="122" y="106" width="28" height="33" fill-opacity="0.45" />
    <rect x="150" y="106" width="28" height="33" fill-opacity="0.30" />
    <rect x="178" y="106" width="28" height="33" fill-opacity="0.18" />
    <rect x="206" y="106" width="28" height="33" fill-opacity="0.08" />
    <rect x="38"  y="139" width="28" height="33" fill-opacity="0.40" />
    <rect x="66"  y="139" width="28" height="33" fill-opacity="0.55" />
    <rect x="94"  y="139" width="28" height="33" fill-opacity="0.45" />
    <rect x="122" y="139" width="28" height="33" fill-opacity="0.28" />
    <rect x="150" y="139" width="28" height="33" fill-opacity="0.18" />
    <rect x="178" y="139" width="28" height="33" fill-opacity="0.10" />
    <rect x="206" y="139" width="28" height="33" fill-opacity="0.06" />
    <rect x="38"  y="172" width="28" height="33" fill-opacity="0.30" />
    <rect x="66"  y="172" width="28" height="33" fill-opacity="0.40" />
    <rect x="94"  y="172" width="28" height="33" fill-opacity="0.30" />
    <rect x="122" y="172" width="28" height="33" fill-opacity="0.18" />
    <rect x="150" y="172" width="28" height="33" fill-opacity="0.10" />
    <rect x="178" y="172" width="28" height="33" fill-opacity="0.06" />
    <rect x="206" y="172" width="28" height="33" fill-opacity="0.05" />
    <rect x="38"  y="205" width="28" height="33" fill-opacity="0.15" />
    <rect x="66"  y="205" width="28" height="33" fill-opacity="0.20" />
    <rect x="94"  y="205" width="28" height="33" fill-opacity="0.15" />
    <rect x="122" y="205" width="28" height="33" fill-opacity="0.10" />
    <rect x="150" y="205" width="28" height="33" fill-opacity="0.05" />
    <rect x="178" y="205" width="28" height="33" fill-opacity="0.05" />
    <rect x="206" y="205" width="28" height="33" fill-opacity="0.05" />
  </g>
</svg>
