<svg xmlns="http://www.w3.org/2000/svg" viewBox="0 0 280 280" role="img" aria-label="Recommender systems: a bipartite user–item graph">
  <defs><style>
    .ink { stroke: currentColor; fill: none; stroke-width: 1.2; stroke-linecap: round; stroke-linejoin: round; }
    .hair { stroke: currentColor; fill: none; stroke-width: 0.6; opacity: 0.4; stroke-dasharray: 2 2; }
    .vertex { fill: currentColor; stroke: none; }
    .item { fill: none; stroke: currentColor; stroke-width: 1.4; }
    .label { font-family: 'EB Garamond', Georgia, serif; font-style: italic; font-size: 11px; fill: currentColor; opacity: 0.6; }
  </style></defs>
  <!-- column labels -->
  <text class="label" x="80" y="40" text-anchor="middle">users</text>
  <text class="label" x="200" y="40" text-anchor="middle">items</text>

  <!-- user nodes (filled circles) on the left -->
  <g class="vertex">
    <circle cx="80" cy="70"  r="6" />
    <circle cx="80" cy="115" r="6" />
    <circle cx="80" cy="160" r="6" />
    <circle cx="80" cy="205" r="6" />
    <circle cx="80" cy="245" r="6" />
  </g>

  <!-- item nodes (open rings) on the right -->
  <g class="item">
    <circle cx="200" cy="70"  r="6" />
    <circle cx="200" cy="115" r="6" />
    <circle cx="200" cy="160" r="6" />
    <circle cx="200" cy="205" r="6" />
    <circle cx="200" cy="245" r="6" />
  </g>

  <!-- bipartite edges (preferences/ratings) -->
  <g class="ink">
    <line x1="80" y1="70"  x2="200" y2="70"  />
    <line x1="80" y1="70"  x2="200" y2="160" />
    <line x1="80" y1="115" x2="200" y2="70"  />
    <line x1="80" y1="115" x2="200" y2="115" />
    <line x1="80" y1="115" x2="200" y2="205" />
    <line x1="80" y1="160" x2="200" y2="115" />
    <line x1="80" y1="160" x2="200" y2="160" />
    <line x1="80" y1="160" x2="200" y2="245" />
    <line x1="80" y1="205" x2="200" y2="115" />
    <line x1="80" y1="205" x2="200" y2="205" />
    <line x1="80" y1="245" x2="200" y2="160" />
    <line x1="80" y1="245" x2="200" y2="205" />
    <line x1="80" y1="245" x2="200" y2="245" />
  </g>

  <!-- a few faint potential edges (recommended items) -->
  <g class="hair">
    <line x1="80" y1="70"  x2="200" y2="205" />
    <line x1="80" y1="160" x2="200" y2="70"  />
    <line x1="80" y1="205" x2="200" y2="245" />
  </g>
</svg>
