<svg xmlns="http://www.w3.org/2000/svg" viewBox="0 0 280 280" role="img" aria-label="Euler characteristic surface: a 2D heatmap"><rect data-bg="paper" width="100%" height="100%" fill="#f5efde" />
  <defs><style>
    .frame       { stroke: #2b211a; fill: none; stroke-width: 0.6; opacity: 0.4; }
    .panel-label { font-family: 'EB Garamond', Georgia, serif; font-style: italic; font-size: 16px; fill: #2b211a; opacity: 0.75; letter-spacing: 0.05em; }
  </style></defs>
  <rect class="frame" x="6"  y="6"  width="268" height="268" stroke-width="1.4" opacity="0.6" />
  <rect class="frame" x="11" y="11" width="258" height="258" stroke-width="0.5" opacity="0.4" />

  <g fill="#2b211a" stroke="none">
    <rect x="40"  y="44"  width="28" height="28" fill-opacity="0.05" />
    <rect x="68"  y="44"  width="28" height="28" fill-opacity="0.10" />
    <rect x="96"  y="44"  width="28" height="28" fill-opacity="0.20" />
    <rect x="124" y="44"  width="28" height="28" fill-opacity="0.40" />
    <rect x="152" y="44"  width="28" height="28" fill-opacity="0.55" />
    <rect x="180" y="44"  width="28" height="28" fill-opacity="0.45" />
    <rect x="208" y="44"  width="28" height="28" fill-opacity="0.25" />
    <rect x="40"  y="72"  width="28" height="28" fill-opacity="0.10" />
    <rect x="68"  y="72"  width="28" height="28" fill-opacity="0.22" />
    <rect x="96"  y="72"  width="28" height="28" fill-opacity="0.42" />
    <rect x="124" y="72"  width="28" height="28" fill-opacity="0.65" />
    <rect x="152" y="72"  width="28" height="28" fill-opacity="0.50" />
    <rect x="180" y="72"  width="28" height="28" fill-opacity="0.32" />
    <rect x="208" y="72"  width="28" height="28" fill-opacity="0.15" />
    <rect x="40"  y="100" width="28" height="28" fill-opacity="0.20" />
    <rect x="68"  y="100" width="28" height="28" fill-opacity="0.42" />
    <rect x="96"  y="100" width="28" height="28" fill-opacity="0.60" />
    <rect x="124" y="100" width="28" height="28" fill-opacity="0.45" />
    <rect x="152" y="100" width="28" height="28" fill-opacity="0.30" />
    <rect x="180" y="100" width="28" height="28" fill-opacity="0.18" />
    <rect x="208" y="100" width="28" height="28" fill-opacity="0.08" />
    <rect x="40"  y="128" width="28" height="28" fill-opacity="0.40" />
    <rect x="68"  y="128" width="28" height="28" fill-opacity="0.55" />
    <rect x="96"  y="128" width="28" height="28" fill-opacity="0.45" />
    <rect x="124" y="128" width="28" height="28" fill-opacity="0.28" />
    <rect x="152" y="128" width="28" height="28" fill-opacity="0.18" />
    <rect x="180" y="128" width="28" height="28" fill-opacity="0.10" />
    <rect x="208" y="128" width="28" height="28" fill-opacity="0.06" />
    <rect x="40"  y="156" width="28" height="28" fill-opacity="0.30" />
    <rect x="68"  y="156" width="28" height="28" fill-opacity="0.40" />
    <rect x="96"  y="156" width="28" height="28" fill-opacity="0.30" />
    <rect x="124" y="156" width="28" height="28" fill-opacity="0.18" />
    <rect x="152" y="156" width="28" height="28" fill-opacity="0.10" />
    <rect x="180" y="156" width="28" height="28" fill-opacity="0.06" />
    <rect x="208" y="156" width="28" height="28" fill-opacity="0.05" />
    <rect x="40"  y="184" width="28" height="28" fill-opacity="0.15" />
    <rect x="68"  y="184" width="28" height="28" fill-opacity="0.20" />
    <rect x="96"  y="184" width="28" height="28" fill-opacity="0.15" />
    <rect x="124" y="184" width="28" height="28" fill-opacity="0.10" />
    <rect x="152" y="184" width="28" height="28" fill-opacity="0.05" />
    <rect x="180" y="184" width="28" height="28" fill-opacity="0.05" />
    <rect x="208" y="184" width="28" height="28" fill-opacity="0.05" />
  </g>

  <text class="panel-label" x="20"  y="264">EULER · χ(ε,τ) · SURFACE</text>
  <text class="panel-label" x="260" y="264" text-anchor="end">Plate I</text>
</svg>
