<svg width="1382px" height="906.890625px"><circle class="sample" stroke="none" fill="rgb(86, 101, 115)" opacity="0.6" cx="1282.633310788952" cy="310.825673660678" r="3"></circle><circle class="sample" stroke="none" fill="rgb(86, 101, 115)" opacity="0.6" cx="869.9249086463437" cy="450.7135444151014" r="3"></circle><circle class="sample" stroke="none" fill="rgb(86, 101, 115)" opacity="0.6" cx="94.71381504826059" cy="239.19097708775973" r="3"></circle><circle class="sample" stroke="none" fill="rgb(86, 101, 115)" opacity="0.6" cx="337.9632132256247" cy="309.80115360395644" r="3"></circle><circle class="sample" stroke="none" fill="rgb(86, 101, 115)" opacity="0.6" cx="1218.6652276554069" cy="695.9155050130832" r="3"></circle><circle class="sample" stroke="none" fill="rgb(86, 101, 115)" opacity="0.6" cx="1186.7582115855494" cy="285.0020815610234" r="3"></circle><circle class="sample" stroke="none" fill="rgb(86, 101, 115)" opacity="0.6" cx="799.9033813812698" cy="466.7919283979769" r="3"></circle><circle class="sample" stroke="none" fill="rgb(86, 101, 115)" opacity="0.6" cx="918.0560838203644" cy="692.2823100277195" r="3"></circle><circle class="sample" stroke="none" fill="rgb(86, 101, 115)" opacity="0.6" cx="615.3610990988311" cy="66.75678013777872" r="3"></circle><circle class="sample" stroke="none" fill="rgb(86, 101, 115)" opacity="0.6" cx="346.6913098772122" cy="902.9310685764788" r="3"></circle><circle class="sample" stroke="none" fill="rgb(86, 101, 115)" opacity="0.6" cx="245.63542621873512" cy="271.14449475858135" r="3"></circle><circle class="sample" stroke="none" fill="rgb(86, 101, 115)" opacity="0.6" cx="1312.3810413515184" cy="431.40375664644387" r="3"></circle><circle class="sample" stroke="none" fill="rgb(86, 101, 115)" opacity="0.6" cx="487.23284222877004" cy="715.273585931213" r="3"></circle><circle class="sample" stroke="none" fill="rgb(86, 101, 115)" opacity="0.6" cx="209.39665712701446" cy="684.5037312276135" r="3"></circle><circle class="sample" stroke="none" fill="rgb(86, 101, 115)" opacity="0.6" cx="890.5295419457872" cy="845.684868470929" r="3"></circle><circle class="sample" stroke="none" fill="rgb(86, 101, 115)" opacity="0.6" cx="1354.6309844927503" cy="39.17791898936605" r="3"></circle><circle class="sample" stroke="none" fill="rgb(86, 101, 115)" opacity="0.6" cx="763.7697590218327" cy="8.019964170438698" r="3"></circle><circle class="sample" stroke="none" fill="rgb(86, 101, 115)" opacity="0.6" cx="176.3537940797171" cy="380.4824806835689" r="3"></circle><circle class="sample" stroke="none" fill="rgb(86, 101, 115)" opacity="0.6" cx="140.11988542965014" cy="54.34424845623818" r="3"></circle><circle class="sample" stroke="none" fill="rgb(86, 101, 115)" opacity="0.6" cx="225.43093564059433" cy="44.15540657030347" r="3"></circle><circle class="sample" stroke="none" fill="rgb(86, 101, 115)" opacity="0.6" cx="715.656175368424" cy="5.037325506438663" r="3"></circle><circle class="sample" stroke="none" fill="rgb(86, 101, 115)" opacity="0.6" cx="729.5368520592506" cy="507.2089622492157" r="3"></circle><circle class="sample" stroke="none" fill="rgb(86, 101, 115)" opacity="0.6" cx="642.3746048537048" cy="879.7304200483651" r="3"></circle><circle class="sample" stroke="none" fill="rgb(86, 101, 115)" opacity="0.6" cx="15.006916292920948" cy="500.6310688666133" r="3"></circle><circle class="sample" stroke="none" fill="rgb(86, 101, 115)" opacity="0.6" cx="1144.890891314054" cy="512.0005773651013" r="3"></circle><circle class="sample" stroke="none" fill="rgb(86, 101, 115)" opacity="0.6" cx="358.2016869341939" cy="831.5351001319739" r="3"></circle><circle class="sample" stroke="none" fill="rgb(86, 101, 115)" opacity="0.6" cx="215.57481864532372" cy="505.2894977179984" r="3"></circle><circle class="sample" stroke="none" fill="rgb(86, 101, 115)" opacity="0.6" cx="669.3317550891902" cy="758.2684398537449" r="3"></circle><circle class="sample" stroke="none" fill="rgb(86, 101, 115)" opacity="0.6" cx="671.1293115357466" cy="709.1258654666932" r="3"></circle><circle class="sample" stroke="none" fill="rgb(86, 101, 115)" opacity="0.6" cx="26.83957906895398" cy="219.22226553112898" r="3"></circle><circle class="sample" stroke="none" fill="rgb(86, 101, 115)" opacity="0.6" cx="128.40781673392985" cy="768.1034910949851" r="3"></circle><circle class="sample" stroke="none" fill="rgb(86, 101, 115)" opacity="0.6" cx="1325.1213831196183" cy="250.73529074347675" r="3"></circle><circle class="sample" stroke="none" fill="rgb(86, 101, 115)" opacity="0.6" cx="931.697382473351" cy="249.23172712980158" r="3"></circle><circle class="sample" stroke="none" fill="rgb(86, 101, 115)" opacity="0.6" cx="787.8063801208464" cy="432.5007362209901" r="3"></circle><circle class="sample" stroke="none" fill="rgb(86, 101, 115)" opacity="0.6" cx="1325.8060546286204" cy="631.5851862717786" r="3"></circle><circle class="sample" stroke="none" fill="rgb(86, 101, 115)" opacity="0.6" cx="444.9233247259504" cy="550.0744328753339" r="3"></circle><circle class="sample" stroke="none" fill="rgb(86, 101, 115)" opacity="0.6" cx="688.2595470254564" cy="408.2871616229925" r="3"></circle><circle class="sample" stroke="none" fill="rgb(86, 101, 115)" opacity="0.6" cx="689.4997212477115" cy="206.69826022198015" r="3"></circle><circle class="sample" stroke="none" fill="rgb(86, 101, 115)" opacity="0.6" cx="617.3712001906154" cy="174.79281990938506" r="3"></circle><circle class="sample" stroke="none" fill="rgb(86, 101, 115)" opacity="0.6" cx="332.39690988576854" cy="740.0061802174225" r="3"></circle><circle class="sample" stroke="none" fill="rgb(86, 101, 115)" opacity="0.6" cx="760.9151661950007" cy="600.4656454565811" r="3"></circle><circle class="sample" stroke="none" fill="rgb(86, 101, 115)" opacity="0.6" cx="1066.5915572656475" cy="681.4846025018227" r="3"></circle><circle class="sample" stroke="none" fill="rgb(86, 101, 115)" opacity="0.6" cx="149.5717306739009" cy="137.3545644261799" r="3"></circle><circle class="sample" stroke="none" fill="rgb(86, 101, 115)" opacity="0.6" cx="368.94838762660834" cy="59.43567405028756" r="3"></circle><circle class="sample" stroke="none" fill="rgb(86, 101, 115)" opacity="0.6" cx="1171.98014712981" cy="512.4944835561022" r="3"></circle><circle class="sample" stroke="none" fill="rgb(86, 101, 115)" opacity="0.6" cx="698.9335324742631" cy="341.1881576098202" r="3"></circle><circle class="sample" stroke="none" fill="rgb(86, 101, 115)" opacity="0.6" cx="684.4457988409251" cy="621.4472400294769" r="3"></circle><circle class="sample" stroke="none" fill="rgb(86, 101, 115)" opacity="0.6" cx="697.8359092042651" cy="731.8367579909043" r="3"></circle><circle class="sample" stroke="none" fill="rgb(86, 101, 115)" opacity="0.6" cx="1261.259327480463" cy="120.9463129324223" r="3"></circle><circle class="sample" stroke="none" fill="rgb(86, 101, 115)" opacity="0.6" cx="415.78076412080947" cy="281.3799511778927" r="3"></circle><circle class="sample" stroke="none" fill="rgb(86, 101, 115)" opacity="0.6" cx="398.49165687605284" cy="450.31309900170334" r="3"></circle><circle class="sample" stroke="none" fill="rgb(86, 101, 115)" opacity="0.6" cx="982.7750200119293" cy="880.1286086077522" r="3"></circle><circle class="sample" stroke="none" fill="rgb(86, 101, 115)" opacity="0.6" cx="350.0786646730187" cy="232.33906494725295" r="3"></circle><circle class="sample" stroke="none" fill="rgb(86, 101, 115)" opacity="0.6" cx="757.5100335826569" cy="464.26129753355565" r="3"></circle><circle class="sample" stroke="none" fill="rgb(86, 101, 115)" opacity="0.6" cx="791.114526999939" cy="863.8686470347685" r="3"></circle><circle class="sample" stroke="none" fill="rgb(86, 101, 115)" opacity="0.6" cx="542.0516958443667" cy="365.112907139655" r="3"></circle><circle class="sample" stroke="none" fill="rgb(86, 101, 115)" opacity="0.6" cx="18.699470557160396" cy="32.764122589338626" r="3"></circle><circle class="sample" stroke="none" fill="rgb(86, 101, 115)" opacity="0.6" cx="260.39622730965095" cy="548.1836097368757" r="3"></circle><circle class="sample" stroke="none" fill="rgb(86, 101, 115)" opacity="0.6" cx="41.676385064491114" cy="385.6243613451088" r="3"></circle><circle class="sample" stroke="none" fill="rgb(86, 101, 115)" opacity="0.6" cx="798.4240908159569" cy="311.8776709822062" r="3"></circle><circle class="sample" stroke="none" fill="rgb(86, 101, 115)" opacity="0.6" cx="345.857262106121" cy="776.9273917780286" r="3"></circle><circle class="sample" stroke="none" fill="rgb(86, 101, 115)" opacity="0.6" cx="399.76444328760124" cy="743.851510993427" r="3"></circle><circle class="sample" stroke="none" fill="rgb(86, 101, 115)" opacity="0.6" cx="974.2481449182217" cy="648.058153930252" r="3"></circle><circle class="sample" stroke="none" fill="rgb(86, 101, 115)" opacity="0.6" cx="518.5899369626496" cy="475.5003918395958" r="3"></circle><circle class="sample" stroke="none" fill="rgb(86, 101, 115)" opacity="0.6" cx="1041.3627044571008" cy="642.0312632452672" r="3"></circle><circle class="sample" stroke="none" fill="rgb(86, 101, 115)" opacity="0.6" cx="276.7849608969718" cy="386.1750699063549" r="3"></circle><circle class="sample" stroke="none" fill="rgb(86, 101, 115)" opacity="0.6" cx="1081.3578040542084" cy="348.03986783668967" r="3"></circle><circle class="sample" stroke="none" fill="rgb(86, 101, 115)" opacity="0.6" cx="970.9718025459309" cy="7.115767553442765" r="3"></circle><circle class="sample" stroke="none" fill="rgb(86, 101, 115)" opacity="0.6" cx="873.4315465494271" cy="845.5920841018605" r="3"></circle><circle class="sample" stroke="none" fill="rgb(86, 101, 115)" opacity="0.6" cx="23.15164827192052" cy="835.2318910078303" r="3"></circle><circle class="sample" stroke="none" fill="rgb(86, 101, 115)" opacity="0.6" cx="1090.7993958597306" cy="489.15437209247995" r="3"></circle><circle class="sample" stroke="none" fill="rgb(86, 101, 115)" opacity="0.6" cx="285.7815078698078" cy="626.5626016995211" r="3"></circle><circle class="sample" stroke="none" fill="rgb(86, 101, 115)" opacity="0.6" cx="631.8634750628573" cy="309.163457949562" r="3"></circle><circle class="sample" stroke="none" fill="rgb(86, 101, 115)" opacity="0.6" cx="511.9662910241814" cy="96.43393798304976" r="3"></circle><circle class="sample" stroke="none" fill="rgb(86, 101, 115)" opacity="0.6" cx="1381.9852924921488" cy="130.78286903470763" r="3"></circle><circle class="sample" stroke="none" fill="rgb(86, 101, 115)" opacity="0.6" cx="213.4063212261069" cy="332.6791525343805" r="3"></circle><circle class="sample" stroke="none" fill="rgb(86, 101, 115)" opacity="0.6" cx="525.0545726677568" cy="840.8567151541533" r="3"></circle><circle class="sample" stroke="none" fill="rgb(86, 101, 115)" opacity="0.6" cx="770.1701107748298" cy="562.7771714435727" r="3"></circle><circle class="sample" stroke="none" fill="rgb(86, 101, 115)" opacity="0.6" cx="637.4774774000784" cy="458.58586941611776" r="3"></circle><circle class="sample" stroke="none" fill="rgb(86, 101, 115)" opacity="0.6" cx="465.8889832540142" cy="621.5470010305714" r="3"></circle><circle class="sample" stroke="none" fill="rgb(86, 101, 115)" opacity="0.6" cx="264.6718388645912" cy="734.3628987778976" r="3"></circle><circle class="sample" stroke="none" fill="rgb(86, 101, 115)" opacity="0.6" cx="1034.607096659888" cy="683.8043165774337" r="3"></circle><circle class="sample" stroke="none" fill="rgb(86, 101, 115)" opacity="0.6" cx="793.6643713596666" cy="238.33095193235124" r="3"></circle><circle class="sample" stroke="none" fill="rgb(86, 101, 115)" opacity="0.6" cx="918.3062914019106" cy="122.07387355210221" r="3"></circle><circle class="sample" stroke="none" fill="rgb(86, 101, 115)" opacity="0.6" cx="346.7566561087487" cy="205.9341545242221" r="3"></circle><circle class="sample" stroke="none" fill="rgb(86, 101, 115)" opacity="0.6" cx="130.03159848496773" cy="823.9056379941233" r="3"></circle><circle class="sample" stroke="none" fill="rgb(86, 101, 115)" opacity="0.6" cx="389.56423890110284" cy="896.3180679495126" r="3"></circle><line class="edge" fill="none" stroke="rgb(231, 76, 60)" stroke-width="1.3" opacity="0.6" x1="1282.633310788952" y1="310.825673660678" x2="1186.7582115855494" y2="285.00208156102343"></line><line class="edge" fill="none" stroke="rgb(231, 76, 60)" stroke-width="1.3" opacity="0.6" x1="1282.633310788952" y1="310.825673660678" x2="1312.3810413515184" y2="431.40375664644387"></line><line class="edge" fill="none" stroke="rgb(231, 76, 60)" stroke-width="1.3" opacity="0.6" x1="1282.633310788952" y1="310.825673660678" x2="1325.1213831196183" y2="250.73529074347675"></line><line class="edge" fill="none" stroke="rgb(231, 76, 60)" stroke-width="1.3" opacity="0.6" x1="1282.633310788952" y1="310.825673660678" x2="1236.5086234323164" y2="281.68754675686523"></line><line class="edge" fill="none" stroke="rgb(231, 76, 60)" stroke-width="1.3" opacity="0.6" x1="869.9249086463437" y1="450.7135444151014" x2="799.9033813812698" y2="466.7919283979769"></line><line class="edge" fill="none" stroke="rgb(231, 76, 60)" stroke-width="1.3" opacity="0.6" x1="869.9249086463437" y1="450.7135444151014" x2="787.8063801208464" y2="432.5007362209901"></line><line class="edge" fill="none" stroke="rgb(231, 76, 60)" stroke-width="1.3" opacity="0.6" x1="869.9249086463437" y1="450.7135444151014" x2="757.5100335826569" y2="464.26129753355565"></line><line class="edge" fill="none" stroke="rgb(231, 76, 60)" stroke-width="1.3" opacity="0.6" x1="869.9249086463437" y1="450.7135444151014" x2="842.5514734195453" y2="355.27831943155803"></line><line class="edge" fill="none" stroke="rgb(231, 76, 60)" stroke-width="1.3" opacity="0.6" x1="94.71381504826064" y1="239.19097708775976" x2="26.83957906895388" y2="219.22226553112898"></line><line class="edge" fill="none" stroke="rgb(231, 76, 60)" stroke-width="1.3" opacity="0.6" x1="94.71381504826064" y1="239.19097708775976" x2="149.57173067390096" y2="137.3545644261799"></line><line class="edge" fill="none" stroke="rgb(231, 76, 60)" stroke-width="1.3" opacity="0.6" x1="337.96321322562477" y1="309.80115360395644" x2="245.63542621873515" y2="271.14449475858135"></line><line class="edge" fill="none" stroke="rgb(231, 76, 60)" stroke-width="1.3" opacity="0.6" x1="337.96321322562477" y1="309.80115360395644" x2="415.78076412080947" y2="281.3799511778927"></line><line class="edge" fill="none" stroke="rgb(231, 76, 60)" stroke-width="1.3" opacity="0.6" x1="337.96321322562477" y1="309.80115360395644" x2="350.0786646730187" y2="232.33906494725295"></line><line class="edge" fill="none" stroke="rgb(231, 76, 60)" stroke-width="1.3" opacity="0.6" x1="337.96321322562477" y1="309.80115360395644" x2="276.7849608969718" y2="386.1750699063549"></line><line class="edge" fill="none" stroke="rgb(231, 76, 60)" stroke-width="1.3" opacity="0.6" x1="337.96321322562477" y1="309.80115360395644" x2="213.406321226107" y2="332.6791525343805"></line><line class="edge" fill="none" stroke="rgb(231, 76, 60)" stroke-width="1.3" opacity="0.6" x1="337.96321322562477" y1="309.80115360395644" x2="346.7566561087487" y2="205.9341545242221"></line><line class="edge" fill="none" stroke="rgb(231, 76, 60)" stroke-width="1.3" opacity="0.6" x1="337.9632132256247" y1="309.80115360395644" x2="318.2358509765627" y2="285.2079180636978"></line><line class="edge" fill="none" stroke="rgb(231, 76, 60)" stroke-width="1.3" opacity="0.6" x1="1218.6652276554069" y1="695.9155050130832" x2="1325.8060546286204" y2="631.5851862717786"></line><line class="edge" fill="none" stroke="rgb(231, 76, 60)" stroke-width="1.3" opacity="0.6" x1="1218.6652276554069" y1="695.9155050130832" x2="1264.8071059315962" y2="620.344336051367"></line><line class="edge" fill="none" stroke="rgb(231, 76, 60)" stroke-width="1.3" opacity="0.6" x1="1186.7582115855494" y1="285.00208156102343" x2="1081.3578040542084" y2="348.03986783668967"></line><line class="edge" fill="none" stroke="rgb(231, 76, 60)" stroke-width="1.3" opacity="0.6" x1="1186.7582115855494" y1="285.00208156102343" x2="1236.5086234323164" y2="281.68754675686523"></line><line class="edge" fill="none" stroke="rgb(231, 76, 60)" stroke-width="1.3" opacity="0.6" x1="799.9033813812698" y1="466.7919283979769" x2="729.5368520592506" y2="507.2089622492157"></line><line class="edge" fill="none" stroke="rgb(231, 76, 60)" stroke-width="1.3" opacity="0.6" x1="799.9033813812698" y1="466.7919283979769" x2="787.8063801208464" y2="432.5007362209901"></line><line class="edge" fill="none" stroke="rgb(231, 76, 60)" stroke-width="1.3" opacity="0.6" x1="799.9033813812698" y1="466.7919283979769" x2="688.2595470254564" y2="408.2871616229925"></line><line class="edge" fill="none" stroke="rgb(231, 76, 60)" stroke-width="1.3" opacity="0.6" x1="799.9033813812698" y1="466.7919283979769" x2="757.5100335826569" y2="464.26129753355565"></line><line class="edge" fill="none" stroke="rgb(231, 76, 60)" stroke-width="1.3" opacity="0.6" x1="799.9033813812698" y1="466.7919283979769" x2="770.1701107748298" y2="562.7771714435727"></line><line class="edge" fill="none" stroke="rgb(231, 76, 60)" stroke-width="1.3" opacity="0.6" x1="799.9033813812698" y1="466.7919283979769" x2="842.5514734195453" y2="355.27831943155803"></line><line class="edge" fill="none" stroke="rgb(231, 76, 60)" stroke-width="1.3" opacity="0.6" x1="918.0560838203644" y1="692.2823100277195" x2="974.2481449182217" y2="648.058153930252"></line><line class="edge" fill="none" stroke="rgb(231, 76, 60)" stroke-width="1.3" opacity="0.6" x1="918.0560838203644" y1="692.2823100277195" x2="1034.607096659888" y2="683.8043165774337"></line><line class="edge" fill="none" stroke="rgb(231, 76, 60)" stroke-width="1.3" opacity="0.6" x1="918.0560838203644" y1="692.2823100277195" x2="941.6995545194242" y2="653.5509143287496"></line><line class="edge" fill="none" stroke="rgb(231, 76, 60)" stroke-width="1.3" opacity="0.6" x1="615.3610990988311" y1="66.75678013777878" x2="715.656175368424" y2="5.037325506438663"></line><line class="edge" fill="none" stroke="rgb(231, 76, 60)" stroke-width="1.3" opacity="0.6" x1="615.3610990988311" y1="66.75678013777883" x2="617.3712001906154" y2="174.79281990938512"></line><line class="edge" fill="none" stroke="rgb(231, 76, 60)" stroke-width="1.3" opacity="0.6" x1="615.3610990988311" y1="66.75678013777883" x2="511.9662910241814" y2="96.43393798304976"></line><line class="edge" fill="none" stroke="rgb(231, 76, 60)" stroke-width="1.3" opacity="0.6" x1="346.6913098772122" y1="902.9310685764788" x2="358.2016869341939" y2="831.5351001319739"></line><line class="edge" fill="none" stroke="rgb(231, 76, 60)" stroke-width="1.3" opacity="0.6" x1="346.6913098772122" y1="902.9310685764788" x2="345.857262106121" y2="776.9273917780286"></line><line class="edge" fill="none" stroke="rgb(231, 76, 60)" stroke-width="1.3" opacity="0.6" x1="346.6913098772122" y1="902.9310685764788" x2="389.56423890110284" y2="896.3180679495126"></line><line class="edge" fill="none" stroke="rgb(231, 76, 60)" stroke-width="1.3" opacity="0.6" x1="245.63542621873515" y1="271.14449475858135" x2="176.35379407971706" y2="380.4824806835689"></line><line class="edge" fill="none" stroke="rgb(231, 76, 60)" stroke-width="1.3" opacity="0.6" x1="245.63542621873515" y1="271.14449475858135" x2="350.0786646730187" y2="232.33906494725295"></line><line class="edge" fill="none" stroke="rgb(231, 76, 60)" stroke-width="1.3" opacity="0.6" x1="245.63542621873515" y1="271.14449475858135" x2="276.7849608969718" y2="386.1750699063549"></line><line class="edge" fill="none" stroke="rgb(231, 76, 60)" stroke-width="1.3" opacity="0.6" x1="245.63542621873512" y1="271.14449475858135" x2="213.4063212261069" y2="332.6791525343805"></line><line class="edge" fill="none" stroke="rgb(231, 76, 60)" stroke-width="1.3" opacity="0.6" x1="245.63542621873515" y1="271.14449475858135" x2="346.7566561087487" y2="205.9341545242221"></line><line class="edge" fill="none" stroke="rgb(231, 76, 60)" stroke-width="1.3" opacity="0.6" x1="245.63542621873515" y1="271.14449475858135" x2="246.52797031586502" y2="167.97598490611847"></line><line class="edge" fill="none" stroke="rgb(231, 76, 60)" stroke-width="1.3" opacity="0.6" x1="245.63542621873515" y1="271.14449475858135" x2="318.2358509765627" y2="285.2079180636978"></line><line class="edge" fill="none" stroke="rgb(231, 76, 60)" stroke-width="1.3" opacity="0.6" x1="1312.3810413515184" y1="431.40375664644387" x2="1345.4773345954627" y2="519.9656023692261"></line><line class="edge" fill="none" stroke="rgb(231, 76, 60)" stroke-width="1.3" opacity="0.6" x1="487.23284222877004" y1="715.273585931213" x2="399.76444328760124" y2="743.851510993427"></line><line class="edge" fill="none" stroke="rgb(231, 76, 60)" stroke-width="1.3" opacity="0.6" x1="487.23284222877004" y1="715.273585931213" x2="465.8889832540142" y2="621.5470010305714"></line><line class="edge" fill="none" stroke="rgb(231, 76, 60)" stroke-width="1.3" opacity="0.6" x1="209.39665712701446" y1="684.5037312276135" x2="128.40781673392985" y2="768.1034910949851"></line><line class="edge" fill="none" stroke="rgb(231, 76, 60)" stroke-width="1.3" opacity="0.6" x1="209.39665712701446" y1="684.5037312276135" x2="285.7815078698078" y2="626.5626016995211"></line><line class="edge" fill="none" stroke="rgb(231, 76, 60)" stroke-width="1.3" opacity="0.6" x1="209.39665712701435" y1="684.5037312276133" x2="264.6718388645912" y2="734.3628987778976"></line><line class="edge" fill="none" stroke="rgb(231, 76, 60)" stroke-width="1.3" opacity="0.6" x1="890.5295419457872" y1="845.684868470929" x2="982.7750200119293" y2="880.1286086077522"></line><path class="triangle" stroke="none" opacity="0.6" fill="rgb(231, 76, 60)" d="M1282.633310788952,310.825673660678L1186.7582115855494,285.00208156102343L1236.5086234323164,281.68754675686523"></path><path class="triangle" stroke="none" opacity="0.6" fill="rgb(231, 76, 60)" d="M1282.633310788952,310.825673660678L1325.1213831196183,250.73529074347675L1236.5086234323164,281.68754675686523"></path><path class="triangle" stroke="none" opacity="0.6" fill="rgb(231, 76, 60)" d="M869.9249086463437,450.7135444151014L799.9033813812698,466.7919283979769L787.8063801208464,432.5007362209901"></path><path class="triangle" stroke="none" opacity="0.6" fill="rgb(231, 76, 60)" d="M869.9249086463437,450.7135444151014L799.9033813812698,466.7919283979769L757.5100335826569,464.26129753355565"></path><path class="triangle" stroke="none" opacity="0.6" fill="rgb(231, 76, 60)" d="M869.9249086463437,450.7135444151014L799.9033813812698,466.7919283979769L842.5514734195453,355.27831943155803"></path><path class="triangle" stroke="none" opacity="0.6" fill="rgb(231, 76, 60)" d="M869.9249086463437,450.7135444151014L787.8063801208464,432.5007362209901L757.5100335826569,464.26129753355565"></path><path class="triangle" stroke="none" opacity="0.6" fill="rgb(231, 76, 60)" d="M869.9249086463437,450.7135444151014L787.8063801208464,432.5007362209901L842.5514734195453,355.27831943155803"></path><circle class="sample" stroke="none" fill="rgb(86, 101, 115)" opacity="0.6" cx="716.4258026942996" cy="159.12477760606507" r="3"></circle><circle class="sample" stroke="none" fill="rgb(86, 101, 115)" opacity="0.6" cx="743.9458300102019" cy="664.7642829493014" r="3"></circle><circle class="sample" stroke="none" fill="rgb(86, 101, 115)" opacity="0.6" cx="1031.130978512983" cy="498.71980295576896" r="3"></circle><circle class="sample" stroke="none" fill="rgb(86, 101, 115)" opacity="0.6" cx="459.38670174243896" cy="172.92440564345645" r="3"></circle><circle class="sample" stroke="none" fill="rgb(86, 101, 115)" opacity="0.6" cx="201.39662079098184" cy="899.2698479797061" r="3"></circle><circle class="sample" stroke="none" fill="rgb(86, 101, 115)" opacity="0.6" cx="1236.5086234323164" cy="281.68754675686523" r="3"></circle><circle class="sample" stroke="none" fill="rgb(86, 101, 115)" opacity="0.6" cx="485.9364525524833" cy="269.01911774039667" r="3"></circle><circle class="sample" stroke="none" fill="rgb(86, 101, 115)" opacity="0.6" cx="1345.477334595463" cy="519.9656023692261" r="3"></circle><circle class="sample" stroke="none" fill="rgb(86, 101, 115)" opacity="0.6" cx="842.5514734195453" cy="355.27831943155803" r="3"></circle><circle class="sample" stroke="none" fill="rgb(86, 101, 115)" opacity="0.6" cx="566.8726049257076" cy="411.91844841590154" r="3"></circle><circle class="sample" stroke="none" fill="rgb(86, 101, 115)" opacity="0.6" cx="1315.775388499119" cy="14.35822465526985" r="3"></circle><circle class="sample" stroke="none" fill="rgb(86, 101, 115)" opacity="0.6" cx="941.6995545194242" cy="653.5509143287496" r="3"></circle><circle class="sample" stroke="none" fill="rgb(86, 101, 115)" opacity="0.6" cx="246.527970315865" cy="167.9759849061185" r="3"></circle><circle class="sample" stroke="none" fill="rgb(86, 101, 115)" opacity="0.6" cx="318.2358509765627" cy="285.2079180636978" r="3"></circle><circle class="sample" stroke="none" fill="rgb(86, 101, 115)" opacity="0.6" cx="656.0681616977031" cy="604.8865308968719" r="3"></circle><circle class="sample" stroke="none" fill="rgb(86, 101, 115)" opacity="0.6" cx="7.094975218782338" cy="653.7827022954414" r="3"></circle><circle class="sample" stroke="none" fill="rgb(86, 101, 115)" opacity="0.6" cx="1264.8071059315962" cy="620.344336051367" r="3"></circle><circle class="sample" stroke="none" fill="rgb(86, 101, 115)" opacity="0.6" cx="317.7194143025904" cy="46.59959908672204" r="3"></circle><circle class="sample" stroke="none" fill="rgb(86, 101, 115)" opacity="0.6" cx="417.55327201980765" cy="198.23966978193084" r="3"></circle><line class="edge" fill="none" stroke="rgb(231, 76, 60)" stroke-width="1.3" opacity="0.6" x1="890.5295419457872" y1="845.684868470929" x2="791.114526999939" y2="863.8686470347685"></line><line class="edge" fill="none" stroke="rgb(231, 76, 60)" stroke-width="1.3" opacity="0.6" x1="890.5295419457872" y1="845.684868470929" x2="873.4315465494271" y2="845.5920841018605"></line><line class="edge" fill="none" stroke="rgb(231, 76, 60)" stroke-width="1.3" opacity="0.6" x1="1354.6309844927503" y1="39.17791898936599" x2="1261.259327480463" y2="120.9463129324223"></line><line class="edge" fill="none" stroke="rgb(231, 76, 60)" stroke-width="1.3" opacity="0.6" x1="1354.6309844927503" y1="39.17791898936599" x2="1381.9852924921488" y2="130.7828690347076"></line><line class="edge" fill="none" stroke="rgb(231, 76, 60)" stroke-width="1.3" opacity="0.6" x1="1354.6309844927503" y1="39.177918989366" x2="1315.775388499119" y2="14.358224655269854"></line><line class="edge" fill="none" stroke="rgb(231, 76, 60)" stroke-width="1.3" opacity="0.6" x1="763.7697590218327" y1="8.019964170438655" x2="715.656175368424" y2="5.037325506438663"></line><line class="edge" fill="none" stroke="rgb(231, 76, 60)" stroke-width="1.3" opacity="0.6" x1="176.35379407971706" y1="380.4824806835689" x2="276.7849608969718" y2="386.1750699063549"></line><line class="edge" fill="none" stroke="rgb(231, 76, 60)" stroke-width="1.3" opacity="0.6" x1="176.35379407971706" y1="380.4824806835689" x2="213.406321226107" y2="332.6791525343805"></line><line class="edge" fill="none" stroke="rgb(231, 76, 60)" stroke-width="1.3" opacity="0.6" x1="140.11988542965014" y1="54.344248456238155" x2="225.43093564059433" y2="44.15540657030347"></line><line class="edge" fill="none" stroke="rgb(231, 76, 60)" stroke-width="1.3" opacity="0.6" x1="140.11988542965014" y1="54.34424845623818" x2="149.5717306739009" y2="137.35456442617988"></line><line class="edge" fill="none" stroke="rgb(231, 76, 60)" stroke-width="1.3" opacity="0.6" x1="140.11988542965014" y1="54.34424845623818" x2="18.699470557160453" y2="32.76412258933857"></line><line class="edge" fill="none" stroke="rgb(231, 76, 60)" stroke-width="1.3" opacity="0.6" x1="225.43093564059433" y1="44.155406570303455" x2="149.5717306739009" y2="137.35456442617988"></line><line class="edge" fill="none" stroke="rgb(231, 76, 60)" stroke-width="1.3" opacity="0.6" x1="225.43093564059433" y1="44.155406570303455" x2="246.527970315865" y2="167.97598490611847"></line><line class="edge" fill="none" stroke="rgb(231, 76, 60)" stroke-width="1.3" opacity="0.6" x1="225.43093564059433" y1="44.155406570303455" x2="317.71941430259045" y2="46.599599086722094"></line><line class="edge" fill="none" stroke="rgb(231, 76, 60)" stroke-width="1.3" opacity="0.6" x1="729.5368520592506" y1="507.2089622492157" x2="787.8063801208464" y2="432.5007362209901"></line><line class="edge" fill="none" stroke="rgb(231, 76, 60)" stroke-width="1.3" opacity="0.6" x1="729.5368520592506" y1="507.2089622492157" x2="688.2595470254564" y2="408.2871616229925"></line><path class="triangle" stroke="none" opacity="0.6" fill="rgb(231, 76, 60)" d="M337.96321322562477,309.80115360395644L245.63542621873515,271.14449475858135L350.0786646730187,232.33906494725295"></path><path class="triangle" stroke="none" opacity="0.6" fill="rgb(231, 76, 60)" d="M337.96321322562477,309.80115360395644L245.63542621873515,271.14449475858135L276.7849608969718,386.1750699063549"></path><path class="triangle" stroke="none" opacity="0.6" fill="rgb(231, 76, 60)" d="M337.96321322562477,309.80115360395644L245.63542621873515,271.14449475858135L213.406321226107,332.6791525343805"></path><line class="edge" fill="none" stroke="rgb(231, 76, 60)" stroke-width="1.3" opacity="0.6" x1="729.5368520592506" y1="507.2089622492157" x2="760.9151661950007" y2="600.4656454565811"></line><line class="edge" fill="none" stroke="rgb(231, 76, 60)" stroke-width="1.3" opacity="0.6" x1="729.5368520592506" y1="507.2089622492157" x2="684.4457988409251" y2="621.4472400294769"></line><line class="edge" fill="none" stroke="rgb(231, 76, 60)" stroke-width="1.3" opacity="0.6" x1="729.5368520592506" y1="507.2089622492157" x2="757.5100335826569" y2="464.26129753355565"></line><line class="edge" fill="none" stroke="rgb(231, 76, 60)" stroke-width="1.3" opacity="0.6" x1="729.5368520592506" y1="507.2089622492157" x2="770.1701107748298" y2="562.7771714435727"></line><line class="edge" fill="none" stroke="rgb(231, 76, 60)" stroke-width="1.3" opacity="0.6" x1="729.5368520592506" y1="507.2089622492157" x2="637.4774774000784" y2="458.58586941611776"></line><line class="edge" fill="none" stroke="rgb(231, 76, 60)" stroke-width="1.3" opacity="0.6" x1="729.5368520592506" y1="507.2089622492157" x2="656.0681616977031" y2="604.8865308968719"></line><line class="edge" fill="none" stroke="rgb(231, 76, 60)" stroke-width="1.3" opacity="0.6" x1="642.3746048537048" y1="879.7304200483651" x2="669.3317550891902" y2="758.2684398537449"></line><line class="edge" fill="none" stroke="rgb(231, 76, 60)" stroke-width="1.3" opacity="0.6" x1="642.3746048537048" y1="879.7304200483651" x2="525.0545726677568" y2="840.8567151541533"></line><line class="edge" fill="none" stroke="rgb(231, 76, 60)" stroke-width="1.3" opacity="0.6" x1="15.006916292920948" y1="500.6310688666133" x2="41.67638506449106" y2="385.6243613451088"></line><line class="edge" fill="none" stroke="rgb(231, 76, 60)" stroke-width="1.3" opacity="0.6" x1="1144.890891314054" y1="512.0005773651013" x2="1171.98014712981" y2="512.4944835561022"></line><line class="edge" fill="none" stroke="rgb(231, 76, 60)" stroke-width="1.3" opacity="0.6" x1="1144.890891314054" y1="512.0005773651013" x2="1090.7993958597306" y2="489.15437209247995"></line><line class="edge" fill="none" stroke="rgb(231, 76, 60)" stroke-width="1.3" opacity="0.6" x1="1144.890891314054" y1="512.0005773651013" x2="1031.130978512983" y2="498.71980295576896"></line><line class="edge" fill="none" stroke="rgb(231, 76, 60)" stroke-width="1.3" opacity="0.6" x1="358.2016869341939" y1="831.5351001319739" x2="332.3969098857685" y2="740.0061802174225"></line><path class="triangle" stroke="none" opacity="0.6" fill="rgb(231, 76, 60)" d="M337.96321322562477,309.80115360395644L245.63542621873515,271.14449475858135L346.7566561087487,205.9341545242221"></path><path class="triangle" stroke="none" opacity="0.6" fill="rgb(231, 76, 60)" d="M337.96321322562477,309.80115360395644L245.63542621873515,271.14449475858135L318.2358509765627,285.2079180636978"></path><path class="triangle" stroke="none" opacity="0.6" fill="rgb(231, 76, 60)" d="M337.96321322562477,309.80115360395644L415.78076412080947,281.3799511778927L350.0786646730187,232.33906494725295"></path><path class="triangle" stroke="none" opacity="0.6" fill="rgb(231, 76, 60)" d="M337.96321322562477,309.80115360395644L415.78076412080947,281.3799511778927L346.7566561087487,205.9341545242221"></path><path class="triangle" stroke="none" opacity="0.6" fill="rgb(231, 76, 60)" d="M337.96321322562477,309.80115360395644L415.78076412080947,281.3799511778927L318.2358509765627,285.2079180636978"></path><path class="triangle" stroke="none" opacity="0.6" fill="rgb(231, 76, 60)" d="M337.96321322562477,309.80115360395644L350.0786646730187,232.33906494725295L346.7566561087487,205.9341545242221"></path><line class="edge" fill="none" stroke="rgb(231, 76, 60)" stroke-width="1.3" opacity="0.6" x1="358.2016869341939" y1="831.5351001319739" x2="345.857262106121" y2="776.9273917780286"></line><line class="edge" fill="none" stroke="rgb(231, 76, 60)" stroke-width="1.3" opacity="0.6" x1="358.2016869341939" y1="831.5351001319739" x2="399.76444328760124" y2="743.851510993427"></line><line class="edge" fill="none" stroke="rgb(231, 76, 60)" stroke-width="1.3" opacity="0.6" x1="358.2016869341939" y1="831.5351001319739" x2="389.56423890110284" y2="896.3180679495126"></line><line class="edge" fill="none" stroke="rgb(231, 76, 60)" stroke-width="1.3" opacity="0.6" x1="215.57481864532372" y1="505.2894977179984" x2="260.39622730965095" y2="548.1836097368757"></line><line class="edge" fill="none" stroke="rgb(231, 76, 60)" stroke-width="1.3" opacity="0.6" x1="669.3317550891902" y1="758.2684398537449" x2="671.1293115357466" y2="709.1258654666932"></line><path class="triangle" stroke="none" opacity="0.6" fill="rgb(231, 76, 60)" d="M337.96321322562477,309.80115360395644L350.0786646730187,232.33906494725295L318.2358509765627,285.2079180636978"></path><path class="triangle" stroke="none" opacity="0.6" fill="rgb(231, 76, 60)" d="M337.96321322562477,309.80115360395644L276.7849608969718,386.1750699063549L213.406321226107,332.6791525343805"></path><line class="edge" fill="none" stroke="rgb(231, 76, 60)" stroke-width="1.3" opacity="0.6" x1="669.3317550891902" y1="758.2684398537449" x2="697.8359092042651" y2="731.8367579909043"></line><line class="edge" fill="none" stroke="rgb(231, 76, 60)" stroke-width="1.3" opacity="0.6" x1="669.3317550891902" y1="758.2684398537449" x2="743.9458300102019" y2="664.7642829493014"></line><line class="edge" fill="none" stroke="rgb(231, 76, 60)" stroke-width="1.3" opacity="0.6" x1="671.1293115357466" y1="709.1258654666932" x2="684.4457988409251" y2="621.4472400294769"></line><line class="edge" fill="none" stroke="rgb(231, 76, 60)" stroke-width="1.3" opacity="0.6" x1="671.1293115357466" y1="709.1258654666932" x2="697.8359092042651" y2="731.8367579909043"></line><line class="edge" fill="none" stroke="rgb(231, 76, 60)" stroke-width="1.3" opacity="0.6" x1="671.1293115357466" y1="709.1258654666932" x2="743.9458300102019" y2="664.7642829493014"></line><line class="edge" fill="none" stroke="rgb(231, 76, 60)" stroke-width="1.3" opacity="0.6" x1="671.1293115357466" y1="709.1258654666932" x2="656.0681616977031" y2="604.8865308968719"></line><line class="edge" fill="none" stroke="rgb(231, 76, 60)" stroke-width="1.3" opacity="0.6" x1="128.40781673392985" y1="768.1034910949851" x2="23.151648271920408" y2="835.2318910078302"></line><line class="edge" fill="none" stroke="rgb(231, 76, 60)" stroke-width="1.3" opacity="0.6" x1="128.40781673392985" y1="768.1034910949851" x2="130.03159848496773" y2="823.9056379941233"></line><path class="triangle" stroke="none" opacity="0.6" fill="rgb(231, 76, 60)" d="M337.9632132256247,309.80115360395644L276.7849608969718,386.1750699063549L318.2358509765627,285.2079180636978"></path><path class="triangle" stroke="none" opacity="0.6" fill="rgb(231, 76, 60)" d="M337.96321322562477,309.80115360395644L213.40632122610702,332.6791525343805L318.2358509765627,285.2079180636978"></path><path class="triangle" stroke="none" opacity="0.6" fill="rgb(231, 76, 60)" d="M337.96321322562477,309.80115360395644L346.7566561087487,205.9341545242221L318.2358509765627,285.2079180636978"></path><path class="triangle" stroke="none" opacity="0.6" fill="rgb(231, 76, 60)" d="M1218.6652276554069,695.9155050130832L1325.8060546286204,631.5851862717786L1264.8071059315962,620.344336051367"></path><line class="edge" fill="none" stroke="rgb(231, 76, 60)" stroke-width="1.3" opacity="0.6" x1="1325.1213831196183" y1="250.73529074347675" x2="1236.5086234323164" y2="281.68754675686523"></line><line class="edge" fill="none" stroke="rgb(231, 76, 60)" stroke-width="1.3" opacity="0.6" x1="931.697382473351" y1="249.23172712980158" x2="918.3062914019106" y2="122.07387355210227"></line><line class="edge" fill="none" stroke="rgb(231, 76, 60)" stroke-width="1.3" opacity="0.6" x1="787.8063801208464" y1="432.5007362209901" x2="688.2595470254564" y2="408.2871616229925"></line><line class="edge" fill="none" stroke="rgb(231, 76, 60)" stroke-width="1.3" opacity="0.6" x1="787.8063801208464" y1="432.5007362209901" x2="698.9335324742631" y2="341.1881576098202"></line><line class="edge" fill="none" stroke="rgb(231, 76, 60)" stroke-width="1.3" opacity="0.6" x1="787.8063801208464" y1="432.5007362209901" x2="757.5100335826569" y2="464.26129753355565"></line><line class="edge" fill="none" stroke="rgb(231, 76, 60)" stroke-width="1.3" opacity="0.6" x1="787.8063801208464" y1="432.5007362209901" x2="798.4240908159569" y2="311.8776709822062"></line><line class="edge" fill="none" stroke="rgb(231, 76, 60)" stroke-width="1.3" opacity="0.6" x1="787.8063801208464" y1="432.5007362209901" x2="842.5514734195453" y2="355.27831943155803"></line><line class="edge" fill="none" stroke="rgb(231, 76, 60)" stroke-width="1.3" opacity="0.6" x1="1325.8060546286204" y1="631.5851862717786" x2="1345.477334595463" y2="519.9656023692261"></line><line class="edge" fill="none" stroke="rgb(231, 76, 60)" stroke-width="1.3" opacity="0.6" x1="1325.8060546286204" y1="631.5851862717786" x2="1264.8071059315962" y2="620.344336051367"></line><line class="edge" fill="none" stroke="rgb(231, 76, 60)" stroke-width="1.3" opacity="0.6" x1="444.9233247259504" y1="550.0744328753339" x2="398.49165687605284" y2="450.31309900170334"></line><line class="edge" fill="none" stroke="rgb(231, 76, 60)" stroke-width="1.3" opacity="0.6" x1="444.9233247259504" y1="550.0744328753339" x2="518.5899369626496" y2="475.5003918395958"></line><line class="edge" fill="none" stroke="rgb(231, 76, 60)" stroke-width="1.3" opacity="0.6" x1="444.9233247259504" y1="550.0744328753339" x2="465.8889832540142" y2="621.5470010305714"></line><line class="edge" fill="none" stroke="rgb(231, 76, 60)" stroke-width="1.3" opacity="0.6" x1="688.2595470254564" y1="408.2871616229925" x2="698.9335324742631" y2="341.1881576098202"></line><line class="edge" fill="none" stroke="rgb(231, 76, 60)" stroke-width="1.3" opacity="0.6" x1="688.2595470254564" y1="408.2871616229925" x2="757.5100335826569" y2="464.26129753355565"></line><line class="edge" fill="none" stroke="rgb(231, 76, 60)" stroke-width="1.3" opacity="0.6" x1="688.2595470254564" y1="408.2871616229925" x2="631.8634750628573" y2="309.163457949562"></line><line class="edge" fill="none" stroke="rgb(231, 76, 60)" stroke-width="1.3" opacity="0.6" x1="688.2595470254564" y1="408.2871616229925" x2="637.4774774000784" y2="458.58586941611776"></line><path class="triangle" stroke="none" opacity="0.6" fill="rgb(231, 76, 60)" d="M799.9033813812698,466.7919283979769L729.5368520592506,507.2089622492157L787.8063801208464,432.5007362209901"></path><path class="triangle" stroke="none" opacity="0.6" fill="rgb(231, 76, 60)" d="M799.9033813812698,466.7919283979769L729.5368520592506,507.2089622492157L688.2595470254564,408.2871616229925"></path><path class="triangle" stroke="none" opacity="0.6" fill="rgb(231, 76, 60)" d="M799.9033813812698,466.7919283979769L729.5368520592506,507.2089622492157L757.5100335826569,464.26129753355565"></path><path class="triangle" stroke="none" opacity="0.6" fill="rgb(231, 76, 60)" d="M799.9033813812698,466.7919283979769L729.5368520592506,507.2089622492157L770.1701107748298,562.7771714435727"></path><path class="triangle" stroke="none" opacity="0.6" fill="rgb(231, 76, 60)" d="M799.9033813812698,466.7919283979769L787.8063801208464,432.5007362209901L688.2595470254564,408.2871616229925"></path><path class="triangle" stroke="none" opacity="0.6" fill="rgb(231, 76, 60)" d="M799.9033813812698,466.7919283979769L787.8063801208464,432.5007362209901L757.5100335826569,464.26129753355565"></path><path class="triangle" stroke="none" opacity="0.6" fill="rgb(231, 76, 60)" d="M799.9033813812698,466.7919283979769L787.8063801208464,432.5007362209901L842.5514734195453,355.278319431558"></path><path class="triangle" stroke="none" opacity="0.6" fill="rgb(231, 76, 60)" d="M799.9033813812698,466.7919283979769L688.2595470254564,408.2871616229925L757.5100335826569,464.26129753355565"></path><path class="triangle" stroke="none" opacity="0.6" fill="rgb(231, 76, 60)" d="M799.9033813812698,466.7919283979769L757.5100335826569,464.26129753355565L770.1701107748298,562.7771714435727"></path><path class="triangle" stroke="none" opacity="0.6" fill="rgb(231, 76, 60)" d="M918.0560838203644,692.2823100277195L974.2481449182217,648.058153930252L1034.607096659888,683.8043165774337"></path><path class="triangle" stroke="none" opacity="0.6" fill="rgb(231, 76, 60)" d="M918.0560838203644,692.2823100277195L974.2481449182217,648.058153930252L941.6995545194242,653.5509143287496"></path><path class="triangle" stroke="none" opacity="0.6" fill="rgb(231, 76, 60)" d="M918.0560838203644,692.2823100277195L1034.607096659888,683.8043165774337L941.6995545194242,653.5509143287496"></path><path class="triangle" stroke="none" opacity="0.6" fill="rgb(231, 76, 60)" d="M346.6913098772122,902.9310685764788L358.2016869341939,831.5351001319739L345.857262106121,776.9273917780286"></path><path class="triangle" stroke="none" opacity="0.6" fill="rgb(231, 76, 60)" d="M346.6913098772122,902.9310685764788L358.2016869341939,831.5351001319739L389.56423890110284,896.3180679495126"></path><line class="edge" fill="none" stroke="rgb(231, 76, 60)" stroke-width="1.3" opacity="0.6" x1="688.2595470254564" y1="408.2871616229925" x2="566.8726049257076" y2="411.91844841590154"></line><line class="edge" fill="none" stroke="rgb(231, 76, 60)" stroke-width="1.3" opacity="0.6" x1="689.4997212477115" y1="206.69826022198015" x2="617.3712001906154" y2="174.79281990938506"></line><line class="edge" fill="none" stroke="rgb(231, 76, 60)" stroke-width="1.3" opacity="0.6" x1="689.4997212477115" y1="206.69826022198015" x2="631.8634750628573" y2="309.163457949562"></line><line class="edge" fill="none" stroke="rgb(231, 76, 60)" stroke-width="1.3" opacity="0.6" x1="689.4997212477115" y1="206.69826022198015" x2="793.6643713596666" y2="238.33095193235124"></line><line class="edge" fill="none" stroke="rgb(231, 76, 60)" stroke-width="1.3" opacity="0.6" x1="689.4997212477115" y1="206.69826022198015" x2="716.4258026942996" y2="159.1247776060651"></line><line class="edge" fill="none" stroke="rgb(231, 76, 60)" stroke-width="1.3" opacity="0.6" x1="617.3712001906154" y1="174.79281990938506" x2="716.4258026942996" y2="159.1247776060651"></line><line class="edge" fill="none" stroke="rgb(231, 76, 60)" stroke-width="1.3" opacity="0.6" x1="332.3969098857685" y1="740.0061802174225" x2="345.857262106121" y2="776.9273917780286"></line><line class="edge" fill="none" stroke="rgb(231, 76, 60)" stroke-width="1.3" opacity="0.6" x1="332.39690988576854" y1="740.0061802174225" x2="399.76444328760124" y2="743.851510993427"></line><line class="edge" fill="none" stroke="rgb(231, 76, 60)" stroke-width="1.3" opacity="0.6" x1="332.39690988576854" y1="740.0061802174225" x2="285.7815078698078" y2="626.5626016995211"></line><line class="edge" fill="none" stroke="rgb(231, 76, 60)" stroke-width="1.3" opacity="0.6" x1="332.39690988576854" y1="740.0061802174225" x2="264.6718388645912" y2="734.3628987778976"></line><line class="edge" fill="none" stroke="rgb(231, 76, 60)" stroke-width="1.3" opacity="0.6" x1="760.9151661950007" y1="600.4656454565811" x2="684.4457988409251" y2="621.4472400294769"></line><line class="edge" fill="none" stroke="rgb(231, 76, 60)" stroke-width="1.3" opacity="0.6" x1="760.9151661950007" y1="600.4656454565811" x2="770.1701107748298" y2="562.7771714435726"></line><line class="edge" fill="none" stroke="rgb(231, 76, 60)" stroke-width="1.3" opacity="0.6" x1="760.9151661950007" y1="600.4656454565811" x2="743.9458300102019" y2="664.7642829493014"></line><line class="edge" fill="none" stroke="rgb(231, 76, 60)" stroke-width="1.3" opacity="0.6" x1="760.9151661950007" y1="600.4656454565811" x2="656.0681616977031" y2="604.8865308968719"></line><line class="edge" fill="none" stroke="rgb(231, 76, 60)" stroke-width="1.3" opacity="0.6" x1="1066.5915572656475" y1="681.4846025018227" x2="974.2481449182217" y2="648.058153930252"></line><line class="edge" fill="none" stroke="rgb(231, 76, 60)" stroke-width="1.3" opacity="0.6" x1="1066.5915572656475" y1="681.4846025018227" x2="1041.3627044571008" y2="642.0312632452672"></line><line class="edge" fill="none" stroke="rgb(231, 76, 60)" stroke-width="1.3" opacity="0.6" x1="1066.5915572656475" y1="681.4846025018227" x2="1034.607096659888" y2="683.8043165774337"></line><path class="triangle" stroke="none" opacity="0.6" fill="rgb(231, 76, 60)" d="M346.6913098772122,902.9310685764788L345.857262106121,776.9273917780286L389.56423890110284,896.3180679495126"></path><path class="triangle" stroke="none" opacity="0.6" fill="rgb(231, 76, 60)" d="M245.63542621873515,271.14449475858135L176.35379407971706,380.4824806835689L276.7849608969718,386.1750699063549"></path><path class="triangle" stroke="none" opacity="0.6" fill="rgb(231, 76, 60)" d="M245.63542621873512,271.14449475858135L176.3537940797171,380.4824806835689L213.40632122610702,332.6791525343805"></path><path class="triangle" stroke="none" opacity="0.6" fill="rgb(231, 76, 60)" d="M245.63542621873512,271.14449475858135L350.0786646730187,232.33906494725295L346.75665610874876,205.9341545242221"></path><path class="triangle" stroke="none" opacity="0.6" fill="rgb(231, 76, 60)" d="M245.63542621873512,271.14449475858135L350.0786646730187,232.33906494725295L246.5279703158651,167.9759849061185"></path><path class="triangle" stroke="none" opacity="0.6" fill="rgb(231, 76, 60)" d="M245.63542621873512,271.14449475858135L350.0786646730187,232.33906494725295L318.2358509765627,285.2079180636978"></path><path class="triangle" stroke="none" opacity="0.6" fill="rgb(231, 76, 60)" d="M245.63542621873515,271.14449475858135L276.7849608969718,386.1750699063549L213.406321226107,332.6791525343805"></path><path class="triangle" stroke="none" opacity="0.6" fill="rgb(231, 76, 60)" d="M245.63542621873515,271.14449475858135L276.7849608969718,386.1750699063549L318.2358509765627,285.2079180636978"></path><path class="triangle" stroke="none" opacity="0.6" fill="rgb(231, 76, 60)" d="M245.63542621873512,271.14449475858135L213.40632122610702,332.6791525343805L318.2358509765627,285.2079180636978"></path><path class="triangle" stroke="none" opacity="0.6" fill="rgb(231, 76, 60)" d="M245.63542621873512,271.14449475858135L346.7566561087487,205.9341545242221L246.527970315865,167.97598490611847"></path><path class="triangle" stroke="none" opacity="0.6" fill="rgb(231, 76, 60)" d="M245.63542621873512,271.14449475858135L346.7566561087487,205.9341545242221L318.2358509765627,285.2079180636978"></path><path class="triangle" stroke="none" opacity="0.6" fill="rgb(231, 76, 60)" d="M209.39665712701446,684.5037312276135L285.7815078698078,626.5626016995211L264.6718388645912,734.3628987778976"></path><path class="triangle" stroke="none" opacity="0.6" fill="rgb(231, 76, 60)" d="M890.5295419457872,845.684868470929L982.7750200119293,880.1286086077522L873.4315465494271,845.5920841018605"></path><path class="triangle" stroke="none" opacity="0.6" fill="rgb(231, 76, 60)" d="M890.5295419457872,845.684868470929L791.114526999939,863.8686470347685L873.4315465494271,845.5920841018605"></path><path class="triangle" stroke="none" opacity="0.6" fill="rgb(231, 76, 60)" d="M1354.6309844927503,39.17791898936599L1261.259327480463,120.9463129324223L1381.9852924921488,130.78286903470757"></path><path class="triangle" stroke="none" opacity="0.6" fill="rgb(231, 76, 60)" d="M1354.6309844927503,39.17791898936599L1261.259327480463,120.9463129324223L1315.775388499119,14.35822465526985"></path><path class="triangle" stroke="none" opacity="0.6" fill="rgb(231, 76, 60)" d="M176.3537940797171,380.4824806835689L276.7849608969718,386.1750699063549L213.40632122610702,332.6791525343805"></path><line class="edge" fill="none" stroke="rgb(231, 76, 60)" stroke-width="1.3" opacity="0.6" x1="1066.5915572656475" y1="681.4846025018227" x2="941.6995545194242" y2="653.5509143287496"></line><line class="edge" fill="none" stroke="rgb(231, 76, 60)" stroke-width="1.3" opacity="0.6" x1="149.5717306739009" y1="137.35456442617988" x2="246.527970315865" y2="167.97598490611847"></line><line class="edge" fill="none" stroke="rgb(231, 76, 60)" stroke-width="1.3" opacity="0.6" x1="368.9483876266083" y1="59.435674050287616" x2="317.71941430259045" y2="46.59959908672204"></line><line class="edge" fill="none" stroke="rgb(231, 76, 60)" stroke-width="1.3" opacity="0.6" x1="1171.98014712981" y1="512.4944835561022" x2="1090.7993958597306" y2="489.1543720924799"></line><line class="edge" fill="none" stroke="rgb(231, 76, 60)" stroke-width="1.3" opacity="0.6" x1="698.9335324742631" y1="341.1881576098202" x2="798.4240908159569" y2="311.8776709822062"></line><line class="edge" fill="none" stroke="rgb(231, 76, 60)" stroke-width="1.3" opacity="0.6" x1="698.9335324742631" y1="341.1881576098202" x2="631.8634750628573" y2="309.163457949562"></line><line class="edge" fill="none" stroke="rgb(231, 76, 60)" stroke-width="1.3" opacity="0.6" x1="684.4457988409251" y1="621.4472400294769" x2="697.8359092042651" y2="731.8367579909043"></line><line class="edge" fill="none" stroke="rgb(231, 76, 60)" stroke-width="1.3" opacity="0.6" x1="684.4457988409251" y1="621.4472400294769" x2="770.1701107748298" y2="562.7771714435727"></line><line class="edge" fill="none" stroke="rgb(231, 76, 60)" stroke-width="1.3" opacity="0.6" x1="684.4457988409251" y1="621.4472400294769" x2="743.9458300102019" y2="664.7642829493014"></line><line class="edge" fill="none" stroke="rgb(231, 76, 60)" stroke-width="1.3" opacity="0.6" x1="684.4457988409251" y1="621.4472400294769" x2="656.0681616977031" y2="604.8865308968719"></line><line class="edge" fill="none" stroke="rgb(231, 76, 60)" stroke-width="1.3" opacity="0.6" x1="697.8359092042651" y1="731.8367579909043" x2="743.9458300102019" y2="664.7642829493014"></line><line class="edge" fill="none" stroke="rgb(231, 76, 60)" stroke-width="1.3" opacity="0.6" x1="1261.259327480463" y1="120.9463129324223" x2="1381.9852924921488" y2="130.78286903470763"></line><path class="triangle" stroke="none" opacity="0.6" fill="rgb(231, 76, 60)" d="M140.11988542965014,54.34424845623818L225.43093564059427,44.155406570303455L149.57173067390102,137.35456442617988"></path><path class="triangle" stroke="none" opacity="0.6" fill="rgb(231, 76, 60)" d="M225.43093564059433,44.155406570303455L149.5717306739009,137.35456442617988L246.527970315865,167.97598490611853"></path><path class="triangle" stroke="none" opacity="0.6" fill="rgb(231, 76, 60)" d="M729.5368520592506,507.2089622492157L787.8063801208464,432.5007362209901L688.2595470254564,408.2871616229925"></path><path class="triangle" stroke="none" opacity="0.6" fill="rgb(231, 76, 60)" d="M729.5368520592506,507.2089622492157L787.8063801208464,432.5007362209901L757.5100335826569,464.26129753355565"></path><path class="triangle" stroke="none" opacity="0.6" fill="rgb(231, 76, 60)" d="M729.5368520592506,507.2089622492157L688.2595470254564,408.2871616229925L757.5100335826569,464.26129753355565"></path><path class="triangle" stroke="none" opacity="0.6" fill="rgb(231, 76, 60)" d="M729.5368520592506,507.2089622492157L688.2595470254564,408.2871616229925L637.4774774000784,458.58586941611776"></path><path class="triangle" stroke="none" opacity="0.6" fill="rgb(231, 76, 60)" d="M729.5368520592506,507.2089622492157L760.9151661950007,600.4656454565811L684.4457988409251,621.4472400294769"></path><path class="triangle" stroke="none" opacity="0.6" fill="rgb(231, 76, 60)" d="M729.5368520592506,507.2089622492157L760.9151661950007,600.4656454565811L770.1701107748298,562.7771714435727"></path><path class="triangle" stroke="none" opacity="0.6" fill="rgb(231, 76, 60)" d="M729.5368520592506,507.2089622492157L760.9151661950007,600.4656454565811L656.0681616977031,604.8865308968719"></path><path class="triangle" stroke="none" opacity="0.6" fill="rgb(231, 76, 60)" d="M729.5368520592506,507.2089622492157L684.4457988409251,621.4472400294769L770.1701107748298,562.7771714435727"></path><path class="triangle" stroke="none" opacity="0.6" fill="rgb(231, 76, 60)" d="M729.5368520592506,507.2089622492157L684.4457988409251,621.4472400294769L656.0681616977031,604.8865308968719"></path><line class="edge" fill="none" stroke="rgb(231, 76, 60)" stroke-width="1.3" opacity="0.6" x1="1261.259327480463" y1="120.9463129324223" x2="1315.775388499119" y2="14.35822465526985"></line><line class="edge" fill="none" stroke="rgb(231, 76, 60)" stroke-width="1.3" opacity="0.6" x1="415.78076412080947" y1="281.3799511778927" x2="350.0786646730187" y2="232.33906494725295"></line><line class="edge" fill="none" stroke="rgb(231, 76, 60)" stroke-width="1.3" opacity="0.6" x1="415.78076412080947" y1="281.3799511778927" x2="346.7566561087487" y2="205.9341545242221"></line><line class="edge" fill="none" stroke="rgb(231, 76, 60)" stroke-width="1.3" opacity="0.6" x1="415.78076412080947" y1="281.3799511778927" x2="459.38670174243896" y2="172.92440564345645"></line><line class="edge" fill="none" stroke="rgb(231, 76, 60)" stroke-width="1.3" opacity="0.6" x1="415.78076412080947" y1="281.3799511778927" x2="485.9364525524833" y2="269.01911774039667"></line><line class="edge" fill="none" stroke="rgb(231, 76, 60)" stroke-width="1.3" opacity="0.6" x1="415.78076412080947" y1="281.3799511778927" x2="318.2358509765627" y2="285.2079180636978"></line><line class="edge" fill="none" stroke="rgb(231, 76, 60)" stroke-width="1.3" opacity="0.6" x1="415.78076412080947" y1="281.3799511778927" x2="417.55327201980765" y2="198.23966978193084"></line><line class="edge" fill="none" stroke="rgb(231, 76, 60)" stroke-width="1.3" opacity="0.6" x1="398.49165687605284" y1="450.31309900170334" x2="518.5899369626496" y2="475.5003918395958"></line><line class="edge" fill="none" stroke="rgb(231, 76, 60)" stroke-width="1.3" opacity="0.6" x1="982.7750200119293" y1="880.1286086077522" x2="873.4315465494271" y2="845.5920841018605"></line><line class="edge" fill="none" stroke="rgb(231, 76, 60)" stroke-width="1.3" opacity="0.6" x1="350.0786646730187" y1="232.33906494725295" x2="346.7566561087487" y2="205.9341545242221"></line><line class="edge" fill="none" stroke="rgb(231, 76, 60)" stroke-width="1.3" opacity="0.6" x1="350.0786646730187" y1="232.33906494725295" x2="459.38670174243896" y2="172.92440564345645"></line><path class="triangle" stroke="none" opacity="0.6" fill="rgb(231, 76, 60)" d="M729.5368520592506,507.2089622492157L757.5100335826569,464.26129753355565L770.1701107748298,562.7771714435727"></path><path class="triangle" stroke="none" opacity="0.6" fill="rgb(231, 76, 60)" d="M729.5368520592506,507.2089622492157L757.5100335826569,464.26129753355565L637.4774774000784,458.58586941611776"></path><path class="triangle" stroke="none" opacity="0.6" fill="rgb(231, 76, 60)" d="M729.5368520592506,507.2089622492157L770.1701107748298,562.7771714435727L656.0681616977031,604.8865308968719"></path><path class="triangle" stroke="none" opacity="0.6" fill="rgb(231, 76, 60)" d="M1144.890891314054,512.0005773651013L1171.98014712981,512.4944835561022L1090.7993958597306,489.15437209247995"></path><path class="triangle" stroke="none" opacity="0.6" fill="rgb(231, 76, 60)" d="M1144.890891314054,512.0005773651013L1090.7993958597306,489.15437209247995L1031.130978512983,498.71980295576896"></path><path class="triangle" stroke="none" opacity="0.6" fill="rgb(231, 76, 60)" d="M358.2016869341939,831.5351001319739L332.3969098857685,740.0061802174225L345.857262106121,776.9273917780286"></path><path class="triangle" stroke="none" opacity="0.6" fill="rgb(231, 76, 60)" d="M358.2016869341939,831.5351001319739L332.3969098857685,740.0061802174225L399.76444328760124,743.851510993427"></path><path class="triangle" stroke="none" opacity="0.6" fill="rgb(231, 76, 60)" d="M358.2016869341939,831.5351001319739L345.857262106121,776.9273917780286L399.76444328760124,743.851510993427"></path><path class="triangle" stroke="none" opacity="0.6" fill="rgb(231, 76, 60)" d="M358.2016869341939,831.5351001319739L345.857262106121,776.9273917780286L389.56423890110284,896.3180679495126"></path><path class="triangle" stroke="none" opacity="0.6" fill="rgb(231, 76, 60)" d="M669.3317550891902,758.2684398537449L671.1293115357466,709.1258654666932L697.8359092042651,731.8367579909043"></path><path class="triangle" stroke="none" opacity="0.6" fill="rgb(231, 76, 60)" d="M669.3317550891902,758.2684398537449L671.1293115357466,709.1258654666932L743.9458300102019,664.7642829493014"></path><line class="edge" fill="none" stroke="rgb(231, 76, 60)" stroke-width="1.3" opacity="0.6" x1="350.0786646730187" y1="232.33906494725295" x2="246.52797031586502" y2="167.9759849061185"></line><line class="edge" fill="none" stroke="rgb(231, 76, 60)" stroke-width="1.3" opacity="0.6" x1="350.0786646730187" y1="232.33906494725295" x2="318.2358509765627" y2="285.2079180636978"></line><line class="edge" fill="none" stroke="rgb(231, 76, 60)" stroke-width="1.3" opacity="0.6" x1="350.0786646730187" y1="232.33906494725295" x2="417.55327201980765" y2="198.23966978193084"></line><line class="edge" fill="none" stroke="rgb(231, 76, 60)" stroke-width="1.3" opacity="0.6" x1="757.5100335826569" y1="464.26129753355565" x2="770.1701107748298" y2="562.7771714435727"></line><line class="edge" fill="none" stroke="rgb(231, 76, 60)" stroke-width="1.3" opacity="0.6" x1="757.5100335826569" y1="464.26129753355565" x2="637.4774774000784" y2="458.58586941611776"></line><line class="edge" fill="none" stroke="rgb(231, 76, 60)" stroke-width="1.3" opacity="0.6" x1="791.114526999939" y1="863.8686470347685" x2="873.4315465494271" y2="845.5920841018605"></line><line class="edge" fill="none" stroke="rgb(231, 76, 60)" stroke-width="1.3" opacity="0.6" x1="542.0516958443667" y1="365.112907139655" x2="518.5899369626496" y2="475.5003918395958"></line><line class="edge" fill="none" stroke="rgb(231, 76, 60)" stroke-width="1.3" opacity="0.6" x1="542.0516958443667" y1="365.112907139655" x2="631.8634750628573" y2="309.163457949562"></line><line class="edge" fill="none" stroke="rgb(231, 76, 60)" stroke-width="1.3" opacity="0.6" x1="542.0516958443667" y1="365.112907139655" x2="485.9364525524833" y2="269.01911774039667"></line><line class="edge" fill="none" stroke="rgb(231, 76, 60)" stroke-width="1.3" opacity="0.6" x1="542.0516958443667" y1="365.112907139655" x2="566.8726049257076" y2="411.91844841590154"></line><line class="edge" fill="none" stroke="rgb(231, 76, 60)" stroke-width="1.3" opacity="0.6" x1="260.39622730965095" y1="548.1836097368757" x2="285.7815078698078" y2="626.5626016995211"></line><line class="edge" fill="none" stroke="rgb(231, 76, 60)" stroke-width="1.3" opacity="0.6" x1="798.4240908159569" y1="311.8776709822062" x2="793.6643713596666" y2="238.3309519323512"></line><line class="edge" fill="none" stroke="rgb(231, 76, 60)" stroke-width="1.3" opacity="0.6" x1="798.4240908159569" y1="311.8776709822062" x2="842.5514734195453" y2="355.27831943155803"></line><path class="triangle" stroke="none" opacity="0.6" fill="rgb(231, 76, 60)" d="M669.3317550891902,758.2684398537449L697.8359092042651,731.8367579909043L743.9458300102019,664.7642829493014"></path><path class="triangle" stroke="none" opacity="0.6" fill="rgb(231, 76, 60)" d="M671.1293115357466,709.1258654666932L684.4457988409251,621.4472400294769L697.8359092042651,731.8367579909043"></path><path class="triangle" stroke="none" opacity="0.6" fill="rgb(231, 76, 60)" d="M671.1293115357466,709.1258654666932L684.4457988409251,621.4472400294769L743.9458300102019,664.7642829493014"></path><path class="triangle" stroke="none" opacity="0.6" fill="rgb(231, 76, 60)" d="M671.1293115357466,709.1258654666932L684.4457988409251,621.4472400294769L656.0681616977031,604.8865308968719"></path><path class="triangle" stroke="none" opacity="0.6" fill="rgb(231, 76, 60)" d="M671.1293115357466,709.1258654666932L697.8359092042651,731.8367579909043L743.9458300102019,664.7642829493014"></path><path class="triangle" stroke="none" opacity="0.6" fill="rgb(231, 76, 60)" d="M671.1293115357466,709.1258654666932L743.9458300102019,664.7642829493014L656.0681616977031,604.8865308968719"></path><path class="triangle" stroke="none" opacity="0.6" fill="rgb(231, 76, 60)" d="M128.40781673392985,768.1034910949851L23.151648271920408,835.2318910078303L130.0315984849677,823.9056379941233"></path><path class="triangle" stroke="none" opacity="0.6" fill="rgb(231, 76, 60)" d="M787.8063801208464,432.5007362209901L688.2595470254564,408.2871616229925L698.9335324742631,341.1881576098202"></path><path class="triangle" stroke="none" opacity="0.6" fill="rgb(231, 76, 60)" d="M787.8063801208464,432.5007362209901L688.2595470254564,408.2871616229925L757.5100335826569,464.26129753355565"></path><path class="triangle" stroke="none" opacity="0.6" fill="rgb(231, 76, 60)" d="M787.8063801208464,432.5007362209901L698.9335324742631,341.1881576098202L798.4240908159569,311.8776709822062"></path><path class="triangle" stroke="none" opacity="0.6" fill="rgb(231, 76, 60)" d="M787.8063801208464,432.5007362209901L798.4240908159569,311.8776709822062L842.5514734195453,355.27831943155803"></path><path class="triangle" stroke="none" opacity="0.6" fill="rgb(231, 76, 60)" d="M1325.8060546286204,631.5851862717786L1345.477334595463,519.9656023692261L1264.8071059315962,620.344336051367"></path><path class="triangle" stroke="none" opacity="0.6" fill="rgb(231, 76, 60)" d="M444.9233247259504,550.0744328753339L398.49165687605284,450.31309900170334L518.5899369626496,475.5003918395958"></path><path class="triangle" stroke="none" opacity="0.6" fill="rgb(231, 76, 60)" d="M688.2595470254564,408.2871616229925L698.9335324742631,341.1881576098202L631.8634750628573,309.163457949562"></path><path class="triangle" stroke="none" opacity="0.6" fill="rgb(231, 76, 60)" d="M688.2595470254564,408.2871616229925L757.5100335826569,464.26129753355565L637.4774774000784,458.58586941611776"></path><line class="edge" fill="none" stroke="rgb(231, 76, 60)" stroke-width="1.3" opacity="0.6" x1="345.85726210612097" y1="776.9273917780286" x2="399.76444328760124" y2="743.851510993427"></line><line class="edge" fill="none" stroke="rgb(231, 76, 60)" stroke-width="1.3" opacity="0.6" x1="345.857262106121" y1="776.9273917780286" x2="264.6718388645912" y2="734.3628987778976"></line><line class="edge" fill="none" stroke="rgb(231, 76, 60)" stroke-width="1.3" opacity="0.6" x1="345.857262106121" y1="776.9273917780286" x2="389.56423890110284" y2="896.3180679495126"></line><line class="edge" fill="none" stroke="rgb(231, 76, 60)" stroke-width="1.3" opacity="0.6" x1="974.2481449182217" y1="648.058153930252" x2="1041.3627044571008" y2="642.0312632452672"></line><line class="edge" fill="none" stroke="rgb(231, 76, 60)" stroke-width="1.3" opacity="0.6" x1="974.2481449182217" y1="648.058153930252" x2="1034.607096659888" y2="683.8043165774337"></line><line class="edge" fill="none" stroke="rgb(231, 76, 60)" stroke-width="1.3" opacity="0.6" x1="974.2481449182217" y1="648.058153930252" x2="941.6995545194242" y2="653.5509143287496"></line><line class="edge" fill="none" stroke="rgb(231, 76, 60)" stroke-width="1.3" opacity="0.6" x1="518.5899369626496" y1="475.5003918395958" x2="637.4774774000784" y2="458.58586941611776"></line><line class="edge" fill="none" stroke="rgb(231, 76, 60)" stroke-width="1.3" opacity="0.6" x1="518.5899369626496" y1="475.5003918395958" x2="566.8726049257076" y2="411.91844841590154"></line><line class="edge" fill="none" stroke="rgb(231, 76, 60)" stroke-width="1.3" opacity="0.6" x1="1041.3627044571008" y1="642.0312632452672" x2="1034.607096659888" y2="683.8043165774337"></line><line class="edge" fill="none" stroke="rgb(231, 76, 60)" stroke-width="1.3" opacity="0.6" x1="1041.3627044571008" y1="642.0312632452672" x2="941.6995545194242" y2="653.5509143287496"></line><line class="edge" fill="none" stroke="rgb(231, 76, 60)" stroke-width="1.3" opacity="0.6" x1="276.7849608969718" y1="386.1750699063549" x2="213.40632122610702" y2="332.6791525343805"></line><line class="edge" fill="none" stroke="rgb(231, 76, 60)" stroke-width="1.3" opacity="0.6" x1="276.7849608969718" y1="386.1750699063549" x2="318.2358509765627" y2="285.2079180636978"></line><line class="edge" fill="none" stroke="rgb(231, 76, 60)" stroke-width="1.3" opacity="0.6" x1="970.9718025459309" y1="7.115767553442765" x2="918.3062914019106" y2="122.07387355210233"></line><line class="edge" fill="none" stroke="rgb(231, 76, 60)" stroke-width="1.3" opacity="0.6" x1="23.151648271920408" y1="835.2318910078303" x2="130.03159848496773" y2="823.9056379941233"></line><line class="edge" fill="none" stroke="rgb(231, 76, 60)" stroke-width="1.3" opacity="0.6" x1="1090.7993958597306" y1="489.15437209247995" x2="1031.130978512983" y2="498.71980295576896"></line><line class="edge" fill="none" stroke="rgb(231, 76, 60)" stroke-width="1.3" opacity="0.6" x1="285.7815078698078" y1="626.5626016995211" x2="264.6718388645912" y2="734.3628987778976"></line><line class="edge" fill="none" stroke="rgb(231, 76, 60)" stroke-width="1.3" opacity="0.6" x1="631.8634750628573" y1="309.163457949562" x2="566.8726049257076" y2="411.91844841590154"></line><line class="edge" fill="none" stroke="rgb(231, 76, 60)" stroke-width="1.3" opacity="0.6" x1="511.9662910241814" y1="96.43393798304974" x2="459.38670174243896" y2="172.92440564345645"></line><line class="edge" fill="none" stroke="rgb(231, 76, 60)" stroke-width="1.3" opacity="0.6" x1="213.406321226107" y1="332.6791525343805" x2="318.2358509765627" y2="285.2079180636978"></line><line class="edge" fill="none" stroke="rgb(231, 76, 60)" stroke-width="1.3" opacity="0.6" x1="770.1701107748298" y1="562.7771714435727" x2="743.9458300102019" y2="664.7642829493014"></line><line class="edge" fill="none" stroke="rgb(231, 76, 60)" stroke-width="1.3" opacity="0.6" x1="770.1701107748298" y1="562.7771714435727" x2="656.0681616977031" y2="604.8865308968719"></line><line class="edge" fill="none" stroke="rgb(231, 76, 60)" stroke-width="1.3" opacity="0.6" x1="637.4774774000784" y1="458.58586941611776" x2="566.8726049257076" y2="411.91844841590154"></line><line class="edge" fill="none" stroke="rgb(231, 76, 60)" stroke-width="1.3" opacity="0.6" x1="1034.607096659888" y1="683.8043165774337" x2="941.6995545194242" y2="653.5509143287496"></line><path class="triangle" stroke="none" opacity="0.6" fill="rgb(231, 76, 60)" d="M688.2595470254564,408.2871616229925L631.8634750628573,309.163457949562L566.8726049257076,411.91844841590154"></path><path class="triangle" stroke="none" opacity="0.6" fill="rgb(231, 76, 60)" d="M688.2595470254564,408.2871616229925L637.4774774000784,458.58586941611776L566.8726049257076,411.91844841590154"></path><path class="triangle" stroke="none" opacity="0.6" fill="rgb(231, 76, 60)" d="M689.4997212477115,206.69826022198015L617.3712001906154,174.79281990938506L716.4258026942996,159.1247776060651"></path><path class="triangle" stroke="none" opacity="0.6" fill="rgb(231, 76, 60)" d="M689.4997212477115,206.69826022198015L793.6643713596666,238.33095193235124L716.4258026942996,159.1247776060651"></path><path class="triangle" stroke="none" opacity="0.6" fill="rgb(231, 76, 60)" d="M332.3969098857685,740.0061802174225L345.857262106121,776.9273917780286L399.76444328760124,743.851510993427"></path><path class="triangle" stroke="none" opacity="0.6" fill="rgb(231, 76, 60)" d="M332.3969098857685,740.0061802174225L345.857262106121,776.9273917780286L264.6718388645912,734.3628987778976"></path><path class="triangle" stroke="none" opacity="0.6" fill="rgb(231, 76, 60)" d="M332.3969098857685,740.0061802174225L285.7815078698078,626.5626016995211L264.6718388645912,734.3628987778976"></path><path class="triangle" stroke="none" opacity="0.6" fill="rgb(231, 76, 60)" d="M760.9151661950007,600.4656454565811L684.4457988409251,621.4472400294769L770.1701107748298,562.7771714435727"></path><path class="triangle" stroke="none" opacity="0.6" fill="rgb(231, 76, 60)" d="M760.9151661950007,600.4656454565811L684.4457988409251,621.4472400294769L743.9458300102019,664.7642829493014"></path><path class="triangle" stroke="none" opacity="0.6" fill="rgb(231, 76, 60)" d="M760.9151661950007,600.4656454565811L684.4457988409251,621.4472400294769L656.0681616977031,604.8865308968719"></path><path class="triangle" stroke="none" opacity="0.6" fill="rgb(231, 76, 60)" d="M760.9151661950007,600.4656454565811L770.1701107748298,562.7771714435727L743.9458300102019,664.7642829493014"></path><path class="triangle" stroke="none" opacity="0.6" fill="rgb(231, 76, 60)" d="M760.9151661950007,600.4656454565811L770.1701107748298,562.7771714435727L656.0681616977031,604.8865308968719"></path><path class="triangle" stroke="none" opacity="0.6" fill="rgb(231, 76, 60)" d="M760.9151661950007,600.4656454565811L743.9458300102019,664.7642829493014L656.0681616977031,604.8865308968719"></path><path class="triangle" stroke="none" opacity="0.6" fill="rgb(231, 76, 60)" d="M1066.5915572656475,681.4846025018227L974.2481449182217,648.058153930252L1041.3627044571008,642.0312632452672"></path><path class="triangle" stroke="none" opacity="0.6" fill="rgb(231, 76, 60)" d="M1066.5915572656475,681.4846025018227L974.2481449182217,648.058153930252L1034.607096659888,683.8043165774337"></path><path class="triangle" stroke="none" opacity="0.6" fill="rgb(231, 76, 60)" d="M1066.5915572656475,681.4846025018227L974.2481449182217,648.058153930252L941.6995545194242,653.5509143287496"></path><path class="triangle" stroke="none" opacity="0.6" fill="rgb(231, 76, 60)" d="M1066.5915572656475,681.4846025018227L1041.3627044571008,642.0312632452672L1034.607096659888,683.8043165774337"></path><path class="triangle" stroke="none" opacity="0.6" fill="rgb(231, 76, 60)" d="M1066.5915572656475,681.4846025018227L1041.3627044571008,642.0312632452672L941.6995545194242,653.5509143287496"></path><path class="triangle" stroke="none" opacity="0.6" fill="rgb(231, 76, 60)" d="M1066.5915572656475,681.4846025018227L1034.607096659888,683.8043165774337L941.6995545194242,653.5509143287496"></path><path class="triangle" stroke="none" opacity="0.6" fill="rgb(231, 76, 60)" d="M684.4457988409251,621.4472400294769L697.8359092042651,731.8367579909043L743.9458300102019,664.7642829493014"></path><path class="triangle" stroke="none" opacity="0.6" fill="rgb(231, 76, 60)" d="M684.4457988409251,621.4472400294769L770.1701107748298,562.7771714435727L743.9458300102019,664.7642829493014"></path><path class="triangle" stroke="none" opacity="0.6" fill="rgb(231, 76, 60)" d="M684.4457988409251,621.4472400294769L770.1701107748298,562.7771714435727L656.0681616977031,604.8865308968719"></path><path class="triangle" stroke="none" opacity="0.6" fill="rgb(231, 76, 60)" d="M684.4457988409251,621.4472400294769L743.9458300102019,664.7642829493014L656.0681616977031,604.8865308968719"></path><path class="triangle" stroke="none" opacity="0.6" fill="rgb(231, 76, 60)" d="M415.7807641208094,281.3799511778927L350.0786646730187,232.33906494725295L346.75665610874864,205.9341545242221"></path><path class="triangle" stroke="none" opacity="0.6" fill="rgb(231, 76, 60)" d="M415.7807641208094,281.3799511778927L350.0786646730187,232.33906494725295L459.38670174243896,172.92440564345645"></path><path class="triangle" stroke="none" opacity="0.6" fill="rgb(231, 76, 60)" d="M415.78076412080947,281.3799511778927L350.0786646730187,232.33906494725295L318.2358509765627,285.2079180636978"></path><path class="triangle" stroke="none" opacity="0.6" fill="rgb(231, 76, 60)" d="M415.7807641208094,281.3799511778927L350.0786646730187,232.33906494725295L417.55327201980765,198.23966978193084"></path><path class="triangle" stroke="none" opacity="0.6" fill="rgb(231, 76, 60)" d="M415.78076412080947,281.3799511778927L346.7566561087487,205.9341545242221L459.38670174243896,172.92440564345645"></path><path class="triangle" stroke="none" opacity="0.6" fill="rgb(231, 76, 60)" d="M415.78076412080947,281.3799511778927L346.7566561087487,205.9341545242221L318.2358509765627,285.2079180636978"></path><path class="triangle" stroke="none" opacity="0.6" fill="rgb(231, 76, 60)" d="M415.78076412080947,281.3799511778927L346.7566561087487,205.9341545242221L417.55327201980765,198.23966978193084"></path><path class="triangle" stroke="none" opacity="0.6" fill="rgb(231, 76, 60)" d="M415.78076412080947,281.3799511778927L459.38670174243896,172.92440564345645L485.9364525524833,269.01911774039667"></path><line class="edge" fill="none" stroke="rgb(231, 76, 60)" stroke-width="1.3" opacity="0.6" x1="793.6643713596666" y1="238.3309519323512" x2="716.4258026942996" y2="159.12477760606507"></line><line class="edge" fill="none" stroke="rgb(231, 76, 60)" stroke-width="1.3" opacity="0.6" x1="793.6643713596666" y1="238.3309519323512" x2="842.5514734195453" y2="355.27831943155803"></line><line class="edge" fill="none" stroke="rgb(231, 76, 60)" stroke-width="1.3" opacity="0.6" x1="346.7566561087487" y1="205.9341545242221" x2="459.38670174243896" y2="172.92440564345645"></line><line class="edge" fill="none" stroke="rgb(231, 76, 60)" stroke-width="1.3" opacity="0.6" x1="346.7566561087487" y1="205.9341545242221" x2="246.52797031586502" y2="167.9759849061185"></line><line class="edge" fill="none" stroke="rgb(231, 76, 60)" stroke-width="1.3" opacity="0.6" x1="346.7566561087487" y1="205.9341545242221" x2="318.2358509765627" y2="285.2079180636978"></line><line class="edge" fill="none" stroke="rgb(231, 76, 60)" stroke-width="1.3" opacity="0.6" x1="346.7566561087487" y1="205.9341545242221" x2="417.55327201980765" y2="198.23966978193084"></line><line class="edge" fill="none" stroke="rgb(231, 76, 60)" stroke-width="1.3" opacity="0.6" x1="130.0315984849677" y1="823.9056379941233" x2="201.39662079098179" y2="899.2698479797061"></line><line class="edge" fill="none" stroke="rgb(231, 76, 60)" stroke-width="1.3" opacity="0.6" x1="743.9458300102019" y1="664.7642829493014" x2="656.0681616977031" y2="604.8865308968719"></line><line class="edge" fill="none" stroke="rgb(231, 76, 60)" stroke-width="1.3" opacity="0.6" x1="459.38670174243896" y1="172.92440564345645" x2="485.9364525524833" y2="269.01911774039667"></line><line class="edge" fill="none" stroke="rgb(231, 76, 60)" stroke-width="1.3" opacity="0.6" x1="459.38670174243896" y1="172.92440564345645" x2="417.55327201980765" y2="198.23966978193084"></line><line class="edge" fill="none" stroke="rgb(231, 76, 60)" stroke-width="1.3" opacity="0.6" x1="485.9364525524833" y1="269.01911774039667" x2="417.55327201980765" y2="198.23966978193084"></line><line class="edge" fill="none" stroke="rgb(231, 76, 60)" stroke-width="1.3" opacity="0.6" x1="1345.477334595463" y1="519.9656023692261" x2="1264.8071059315962" y2="620.344336051367"></line><path class="triangle" stroke="none" opacity="0.6" fill="rgb(231, 76, 60)" d="M415.78076412080947,281.3799511778927L459.38670174243896,172.92440564345645L417.55327201980765,198.23966978193084"></path><path class="triangle" stroke="none" opacity="0.6" fill="rgb(231, 76, 60)" d="M415.78076412080947,281.3799511778927L485.9364525524833,269.01911774039667L417.55327201980765,198.23966978193084"></path><path class="triangle" stroke="none" opacity="0.6" fill="rgb(231, 76, 60)" d="M350.0786646730187,232.33906494725295L346.7566561087487,205.9341545242221L459.38670174243896,172.92440564345645"></path><path class="triangle" stroke="none" opacity="0.6" fill="rgb(231, 76, 60)" d="M350.0786646730187,232.33906494725295L346.7566561087487,205.9341545242221L246.52797031586502,167.9759849061185"></path><path class="triangle" stroke="none" opacity="0.6" fill="rgb(231, 76, 60)" d="M350.0786646730187,232.33906494725295L346.7566561087487,205.9341545242221L318.2358509765627,285.2079180636978"></path><path class="triangle" stroke="none" opacity="0.6" fill="rgb(231, 76, 60)" d="M350.0786646730187,232.33906494725295L346.7566561087487,205.9341545242221L417.55327201980765,198.23966978193084"></path><path class="triangle" stroke="none" opacity="0.6" fill="rgb(231, 76, 60)" d="M350.0786646730187,232.33906494725295L459.38670174243896,172.92440564345645L417.55327201980765,198.23966978193084"></path><path class="triangle" stroke="none" opacity="0.6" fill="rgb(231, 76, 60)" d="M542.0516958443667,365.112907139655L518.5899369626496,475.5003918395958L566.8726049257076,411.91844841590154"></path><path class="triangle" stroke="none" opacity="0.6" fill="rgb(231, 76, 60)" d="M542.0516958443667,365.112907139655L631.8634750628573,309.163457949562L566.8726049257076,411.91844841590154"></path><path class="triangle" stroke="none" opacity="0.6" fill="rgb(231, 76, 60)" d="M798.4240908159569,311.8776709822062L793.6643713596666,238.3309519323512L842.5514734195453,355.27831943155803"></path><path class="triangle" stroke="none" opacity="0.6" fill="rgb(231, 76, 60)" d="M974.2481449182217,648.058153930252L1041.3627044571008,642.0312632452672L1034.607096659888,683.8043165774337"></path><path class="triangle" stroke="none" opacity="0.6" fill="rgb(231, 76, 60)" d="M974.2481449182217,648.058153930252L1041.3627044571008,642.0312632452672L941.6995545194242,653.5509143287496"></path><path class="triangle" stroke="none" opacity="0.6" fill="rgb(231, 76, 60)" d="M974.2481449182217,648.058153930252L1034.607096659888,683.8043165774337L941.6995545194242,653.5509143287496"></path><path class="triangle" stroke="none" opacity="0.6" fill="rgb(231, 76, 60)" d="M518.5899369626496,475.5003918395958L637.4774774000784,458.58586941611776L566.8726049257076,411.91844841590154"></path><path class="triangle" stroke="none" opacity="0.6" fill="rgb(231, 76, 60)" d="M1041.3627044571008,642.0312632452672L1034.607096659888,683.8043165774337L941.6995545194242,653.5509143287496"></path><path class="triangle" stroke="none" opacity="0.6" fill="rgb(231, 76, 60)" d="M276.7849608969718,386.1750699063549L213.406321226107,332.6791525343805L318.2358509765627,285.2079180636978"></path><path class="triangle" stroke="none" opacity="0.6" fill="rgb(231, 76, 60)" d="M770.1701107748298,562.7771714435727L743.9458300102019,664.7642829493014L656.0681616977031,604.8865308968719"></path><path class="triangle" stroke="none" opacity="0.6" fill="rgb(231, 76, 60)" d="M346.7566561087487,205.9341545242221L459.38670174243896,172.92440564345645L417.55327201980765,198.23966978193084"></path><path class="triangle" stroke="none" opacity="0.6" fill="rgb(231, 76, 60)" d="M459.38670174243896,172.92440564345645L485.9364525524833,269.01911774039667L417.55327201980765,198.23966978193084"></path></svg>